<svg xmlns="http://www.w3.org/2000/svg" width="65.46" height="65.461" viewBox="0 0 65.46 65.461">
  <g id="accept" transform="translate(-0.277)">
    <path id="Path_2746" data-name="Path 2746" d="M33.007,0a32.731,32.731,0,1,0,32.73,32.731A32.767,32.767,0,0,0,33.007,0Zm0,62.793A30.062,30.062,0,1,1,63.068,32.731,30.1,30.1,0,0,1,33.007,62.793Zm0,0" fill="#2c2c2a"/>
    <path id="Path_2747" data-name="Path 2747" d="M129.2,132.561l-23.273,23.272L95.389,145.3a1.334,1.334,0,0,0-1.887,1.887l11.479,11.478a1.335,1.335,0,0,0,1.887,0l24.216-24.216a1.334,1.334,0,0,0-1.887-1.887Zm0,0" transform="translate(-79.286 -112.881)" fill="#b89464"/>
  </g>
</svg>
