<svg id="calendar" xmlns="http://www.w3.org/2000/svg" width="20.556" height="20.556" viewBox="0 0 20.556 20.556">
  <path id="Path_3172" data-name="Path 3172" d="M17.906,1.606H16.059V.642a.642.642,0,1,0-1.285,0v.964H5.781V.642A.642.642,0,0,0,4.5.642v.964H2.65A2.653,2.653,0,0,0,0,4.256v13.65a2.653,2.653,0,0,0,2.65,2.65H17.906a2.653,2.653,0,0,0,2.65-2.65V4.256A2.653,2.653,0,0,0,17.906,1.606ZM2.65,2.891H4.5v.642a.642.642,0,1,0,1.285,0V2.891h8.993v.642a.642.642,0,1,0,1.285,0V2.891h1.847a1.367,1.367,0,0,1,1.365,1.365V5.781H1.285V4.256A1.367,1.367,0,0,1,2.65,2.891Zm15.256,16.38H2.65a1.367,1.367,0,0,1-1.365-1.365V7.066H19.271v10.84A1.367,1.367,0,0,1,17.906,19.271Z" fill="#856847"/>
</svg>
