<svg xmlns="http://www.w3.org/2000/svg" width="14.074" height="16.93" viewBox="0 0 14.074 16.93">
  <g id="noun_documents_358676" transform="translate(-18 -12)">
    <g id="Group_1191" data-name="Group 1191" transform="translate(18 12)">
      <path id="Path_3176" data-name="Path 3176" d="M27.64,14.875V13.42l3.014,3.014H27.64V14.875Zm-7.424-.659v-1.8A.416.416,0,0,1,20.632,12h6.592a.414.414,0,0,1,.056.012l.05.01a.413.413,0,0,1,.189.1h0l4.432,4.432h0a.414.414,0,0,1,.1.188c0,.017.008.035.011.053a.376.376,0,0,1,.01.053V26.3a.415.415,0,0,1-.416.416h-1.8v1.8a.415.415,0,0,1-.416.416H18.416A.416.416,0,0,1,18,28.515V14.632a.416.416,0,0,1,.416-.416Zm0,.831V26.3a.416.416,0,0,0,.416.416h8.393V28.1H18.831V15.048Z" transform="translate(-18 -12)" fill="#fff" fill-rule="evenodd"/>
    </g>
  </g>
</svg>
