<svg xmlns="http://www.w3.org/2000/svg" width="11.158" height="15.658" viewBox="0 0 11.158 15.658">
  <g id="Group_1198" data-name="Group 1198" transform="translate(-17.218 -4.724)">
    <path id="Path_3175" data-name="Path 3175" d="M22.157,18.553a11.3,11.3,0,0,1-2.625-.6,9.335,9.335,0,0,1-2.314-1.207l1.646-2.433a9.8,9.8,0,0,0,1.71.988,7.169,7.169,0,0,0,1.692.512v-2.2a13.8,13.8,0,0,1-1.93-.585,5.044,5.044,0,0,1-1.39-.8,3.065,3.065,0,0,1-.841-1.088,3.548,3.548,0,0,1-.283-1.482V9.626a3.693,3.693,0,0,1,.293-1.482,3.379,3.379,0,0,1,.851-1.18,4.334,4.334,0,0,1,1.372-.814,6.462,6.462,0,0,1,1.857-.384V4.724h1.9v1.1a8.265,8.265,0,0,1,3.86,1.427L26.455,9.7a6.655,6.655,0,0,0-1.2-.677A7.406,7.406,0,0,0,24,8.6v2.122a12.338,12.338,0,0,1,1.912.595,5.14,5.14,0,0,1,1.363.805A2.975,2.975,0,0,1,28.1,13.23a3.731,3.731,0,0,1,.275,1.482v.037a3.539,3.539,0,0,1-.311,1.509,3.471,3.471,0,0,1-.878,1.161,4.325,4.325,0,0,1-1.363.787,7,7,0,0,1-1.765.384v1.793h-1.9Zm.128-10.115a1.682,1.682,0,0,0-.96.3.78.78,0,0,0-.284.613v.037a.773.773,0,0,0,.247.594,2.54,2.54,0,0,0,1,.43Zm1.7,7.482q1.225-.128,1.225-.933v-.037a.789.789,0,0,0-.256-.6,2.5,2.5,0,0,0-.969-.439Z" fill="#fff"/>
  </g>
</svg>
