<svg xmlns="http://www.w3.org/2000/svg" width="131.227" height="46.766" viewBox="0 0 131.227 46.766">
  <path id="Path_2738" data-name="Path 2738" d="M-53.247-16.827a.414.414,0,0,0-.434.372v5.33h-4.834v-5.33a.421.421,0,0,0-.454-.372h-2.293a.414.414,0,0,0-.434.372V-2.717a.415.415,0,0,0,.434.351h2.293a.422.422,0,0,0,.454-.351V-8.088h4.834v5.371a.415.415,0,0,0,.434.351h2.293a.422.422,0,0,0,.454-.351V-16.455a.421.421,0,0,0-.454-.372Zm12.973-.041c-4.772,0-7.127,3.677-7.127,7.334s2.355,7.354,7.127,7.354c4.71,0,7.106-3.7,7.106-7.354S-35.564-16.868-40.274-16.868Zm0,11.775c-2.624,0-3.946-2.19-3.946-4.4,0-2.231,1.322-4.462,3.946-4.462,2.6,0,3.946,2.231,3.946,4.462C-36.328-7.283-37.671-5.093-40.274-5.093Zm15.948,2.933c3.1,0,5.474-1.8,5.474-4.875v-9.152a.408.408,0,0,0-.413-.372h-2.272a.414.414,0,0,0-.434.372v9.152c0,1.281-1.178,1.9-2.355,1.9A2.306,2.306,0,0,1-26.7-7.076v-9.11a.414.414,0,0,0-.434-.372h-2.252a.414.414,0,0,0-.434.372v9.152C-29.821-4.039-27.362-2.159-24.326-2.159Zm13.366,0A4.338,4.338,0,0,0-6.332-6.5a4.166,4.166,0,0,0-2.458-3.925A5.539,5.539,0,0,0-10.96-10.9a1.477,1.477,0,0,1-1.529-1.487,1.42,1.42,0,0,1,1.529-1.529,1.362,1.362,0,0,1,1.487,1.281.413.413,0,0,0,.434.351h2.231a.4.4,0,0,0,.434-.351,4.323,4.323,0,0,0-4.586-4.214,4.457,4.457,0,0,0-4.648,4.462A4.155,4.155,0,0,0-13.17-8.5a5.685,5.685,0,0,0,2.21.475A1.66,1.66,0,0,1-9.431-6.5,1.416,1.416,0,0,1-10.96-5.134a1.382,1.382,0,0,1-1.529-1.322c0-.207-.227-.331-.434-.331h-2.252c-.269,0-.434.124-.434.331C-15.567-3.709-13.542-2.221-10.96-2.159Zm17.1-11.589A.422.422,0,0,0,6.6-14.1v-2.21c0-.186-.186-.351-.454-.351H-2.841a.379.379,0,0,0-.413.351V-2.717a.393.393,0,0,0,.413.351H6.145A.422.422,0,0,0,6.6-2.717v-2.19c0-.186-.186-.351-.454-.351h-6.3V-8.047H5.03A.379.379,0,0,0,5.443-8.4v-2.169a.367.367,0,0,0-.413-.351H-.156v-2.83ZM22.32-6.167a5.467,5.467,0,0,0,5.536-5.392,5.516,5.516,0,0,0-5.536-5.433,5.52,5.52,0,0,0-5.557,5.433A5.472,5.472,0,0,0,22.32-6.167Zm0-7.829A2.39,2.39,0,0,1,24.7-11.559a2.342,2.342,0,0,1-2.376,2.4,2.359,2.359,0,0,1-2.4-2.4A2.407,2.407,0,0,1,22.32-14ZM27.237-4.99a.421.421,0,0,0-.454-.372H17.734a.4.4,0,0,0-.434.372v2.272a.4.4,0,0,0,.434.351h9.048a.422.422,0,0,0,.454-.351Zm13.221-8.594a.421.421,0,0,0,.454-.372v-2.231a.421.421,0,0,0-.454-.372H31.472a.394.394,0,0,0-.413.372V-2.717a.393.393,0,0,0,.413.351h2.252a.387.387,0,0,0,.434-.351V-7.985h5.185a.379.379,0,0,0,.413-.351v-2.231a.367.367,0,0,0-.413-.351H34.157v-2.665ZM-66.094,25.5c-3.219,0-5.853-2.4-5.853-6.263,0-3.6,2.195-6.263,5.853-6.263a5.893,5.893,0,0,1,4.185,1.785.658.658,0,0,0,.79,0l2.283-2.253a.767.767,0,0,0,.059-.79A10.715,10.715,0,0,0-66.094,8.7c-6.058,0-10.389,4.361-10.389,10.536A10.09,10.09,0,0,0-66.094,29.774a10.824,10.824,0,0,0,7.316-2.985c.146-.146.088-.556,0-.761L-61,23.8a.762.762,0,0,0-.907-.088A5.893,5.893,0,0,1-66.094,25.5Zm15.862-.2V9.728a.566.566,0,0,0-.615-.5h-3.19a.548.548,0,0,0-.615.5V28.984a.567.567,0,0,0,.615.5h10.243a.587.587,0,0,0,.615-.5v-3.19a.566.566,0,0,0-.615-.5Zm21.159,3.863v-.029a.589.589,0,0,0,.556.351h3.483a.505.505,0,0,0,.527-.7L-32.175,8.967a.659.659,0,0,0-1.141,0c-2.488,6.409-5.18,13.4-7.668,19.813-.146.351.059.7.556.7h3.453a.6.6,0,0,0,.585-.351v.029l.732-2.019h5.795Zm-4.39-8.575a20.552,20.552,0,0,0,.732-2.81,21.9,21.9,0,0,0,.7,2.81l1,3.044h-3.453Zm17.852,9.189c3.366,0,6.556-2.166,6.556-6.146a5.9,5.9,0,0,0-3.483-5.56A7.847,7.847,0,0,0-15.61,17.4a2.092,2.092,0,0,1-2.166-2.107,2.011,2.011,0,0,1,2.166-2.166A1.93,1.93,0,0,1-13.5,14.937a.586.586,0,0,0,.615.5h3.161a.566.566,0,0,0,.615-.5c-.059-3.541-2.9-5.97-6.5-5.97A6.314,6.314,0,0,0-22.2,15.288a5.886,5.886,0,0,0,3.453,5.5,8.053,8.053,0,0,0,3.131.673,2.351,2.351,0,0,1,2.166,2.166A2.006,2.006,0,0,1-15.61,25.56a1.957,1.957,0,0,1-2.166-1.873c0-.293-.322-.468-.615-.468h-3.19c-.38,0-.615.176-.615.468C-22.137,27.58-19.269,29.687-15.61,29.774Zm16.769,0c3.366,0,6.556-2.166,6.556-6.146a5.9,5.9,0,0,0-3.483-5.56A7.847,7.847,0,0,0,1.159,17.4a2.092,2.092,0,0,1-2.166-2.107,2.011,2.011,0,0,1,2.166-2.166,1.93,1.93,0,0,1,2.107,1.814.586.586,0,0,0,.615.5H7.041a.566.566,0,0,0,.615-.5c-.059-3.541-2.9-5.97-6.5-5.97a6.314,6.314,0,0,0-6.585,6.321,5.886,5.886,0,0,0,3.453,5.5,8.053,8.053,0,0,0,3.131.673,2.351,2.351,0,0,1,2.166,2.166A2.006,2.006,0,0,1,1.159,25.56a1.957,1.957,0,0,1-2.166-1.873c0-.293-.322-.468-.615-.468h-3.19c-.38,0-.615.176-.615.468C-5.367,27.58-2.5,29.687,1.159,29.774Zm10.8-.79a.587.587,0,0,0,.615.5h3.19a.567.567,0,0,0,.615-.5V9.728a.548.548,0,0,0-.615-.5h-3.19a.566.566,0,0,0-.615.5Zm18.73-3.424c-3.131,0-5.707-2.312-5.707-6.117,0-3.541,2.136-6.351,5.707-6.351a5.9,5.9,0,0,1,4.126,1.756.658.658,0,0,0,.79,0l2.224-2.224a.715.715,0,0,0,.059-.761,10.483,10.483,0,0,0-7.2-2.927c-5.97,0-10.184,4.448-10.184,10.506A9.923,9.923,0,0,0,30.688,29.774a10.261,10.261,0,0,0,7.141-2.9.584.584,0,0,0,0-.79L35.6,23.834a.658.658,0,0,0-.79,0A5.875,5.875,0,0,1,30.688,25.56Zm17.5,4.214c3.366,0,6.556-2.166,6.556-6.146a5.9,5.9,0,0,0-3.483-5.56,7.847,7.847,0,0,0-3.073-.673,2.092,2.092,0,0,1-2.166-2.107,2.011,2.011,0,0,1,2.166-2.166A1.93,1.93,0,0,1,50.3,14.937a.586.586,0,0,0,.615.5h3.161a.566.566,0,0,0,.615-.5c-.059-3.541-2.9-5.97-6.5-5.97A6.314,6.314,0,0,0,41.6,15.288a5.886,5.886,0,0,0,3.453,5.5,8.053,8.053,0,0,0,3.131.673,2.351,2.351,0,0,1,2.166,2.166,2.006,2.006,0,0,1-2.166,1.932,1.957,1.957,0,0,1-2.166-1.873c0-.293-.322-.468-.615-.468h-3.19c-.38,0-.615.176-.615.468C41.662,27.58,44.53,29.687,48.189,29.774Z" transform="translate(76.483 16.992)" fill="#b89464"/>
</svg>
