<?xml version="1.0" standalone="no"?>
<!DOCTYPE svg PUBLIC "-//W3C//DTD SVG 1.1//EN" "http://www.w3.org/Graphics/SVG/1.1/DTD/svg11.dtd" >
<svg xmlns="http://www.w3.org/2000/svg" xmlns:xlink="http://www.w3.org/1999/xlink" version="1.1">
<metadata>
Created by FontForge 20190801 at Mon Nov 25 14:31:32 2013
 By www-data
Copyright (c) 2013 by Frank Hemmekam. All rights reserved.
</metadata>
<defs>
<font id="BaronNeue_1" horiz-adv-x="559" >
  <font-face 
    font-family="BaronNeue_1"
    font-weight="400"
    font-stretch="normal"
    units-per-em="1000"
    panose-1="2 11 0 0 0 0 0 0 0 0"
    ascent="750"
    descent="-250"
    x-height="700"
    cap-height="700"
    bbox="-31 -240 1077 975"
    underline-thickness="50"
    underline-position="-100"
    unicode-range="U+0020-25CA"
  />
<missing-glyph horiz-adv-x="440" 
 />
    <glyph glyph-name=".notdef" horiz-adv-x="440" 
 />
    <glyph glyph-name=".null" horiz-adv-x="0" 
 />
    <glyph glyph-name="nonmarkingreturn" horiz-adv-x="333" 
 />
    <glyph glyph-name="space" unicode=" " horiz-adv-x="345" 
 />
    <glyph glyph-name="exclam" unicode="!" horiz-adv-x="276" 
d="M79 700h117v-496h-117v496zM137 125q28 0 47.5 -20t19.5 -47t-19.5 -46.5t-47.5 -19.5q-27 0 -46.5 19.5t-19.5 46.5t19.5 47t46.5 20z" />
    <glyph glyph-name="quotedbl" unicode="&#x22;" horiz-adv-x="332" 
d="M31 477v223h106v-223h-106zM191 477v223h106v-223h-106z" />
    <glyph glyph-name="numbersign" unicode="#" horiz-adv-x="683" 
d="M607 426h-88l-50 -179h88l-29 -102h-88l-41 -146h-116l41 146h-117l-41 -146h-115l40 146h-87l29 102h87l50 179h-88l28 99h88l49 175h116l-49 -175h117l49 175h116l-49 -175h88zM356 244l52 185h-125l-52 -185h125z" />
    <glyph glyph-name="dollar" unicode="$" horiz-adv-x="543" 
d="M491 197q0 -87 -49.5 -138.5t-125.5 -62.5v-70h-87v72q-78 12 -126 64t-49 135h117q1 -32 18.5 -52.5t46.5 -29.5v182q-39 6 -68 20q-114 53 -114 179q0 83 50 138.5t125 69.5v81h87v-81q75 -13 123.5 -66.5t49.5 -130.5h-116q-3 64 -64 79v-182q35 -6 68 -20
q114 -52 114 -187zM375 197q0 73 -66 92v-175q66 16 66 83zM171 496q0 -63 65 -84v174q-65 -19 -65 -90z" />
    <glyph glyph-name="percent" unicode="%" horiz-adv-x="664" 
d="M165 412q-59 0 -101.5 42.5t-42.5 101.5t42.5 101.5t101.5 42.5t101.5 -42.5t42.5 -101.5t-42.5 -101.5t-101.5 -42.5zM165 618q-25 0 -43 -18t-18 -44t18 -43.5t43 -17.5t43 17.5t18 43.5t-18 44t-43 18zM486 2q-60 0 -102.5 42.5t-42.5 102.5q0 61 42.5 103.5
t102.5 42.5q61 0 103.5 -42.5t42.5 -103.5q0 -60 -42.5 -102.5t-103.5 -42.5zM486 210q-26 0 -44 -18.5t-18 -44.5q0 -25 18 -43.5t44 -18.5t44.5 18t18.5 44t-18.5 44.5t-44.5 18.5zM111 2h-111l543 698h111z" />
    <glyph glyph-name="ampersand" unicode="&#x26;" horiz-adv-x="653" 
d="M629 83l-83 -83l-83 83q-47 -60 -122.5 -79t-147 5t-112.5 81q-51 74 -38.5 159t83.5 147q-62 52 -62 134q0 72 51.5 123.5t123.5 51.5q73 0 124 -51.5t51 -123.5q0 -48 -23.5 -88t-63.5 -64l106 -110v135h186v-105h-88v-60q0 -17 -9 -49zM239 594q-26 0 -45 -19t-19 -45
t19 -45.5t45 -19.5t45 19.5t19 45.5t-19 45t-45 19zM218 323q-44 -29 -56 -72.5t18 -87.5q33 -45 96.5 -47t103.5 50z" />
    <glyph glyph-name="quotesingle" unicode="'" horiz-adv-x="166" 
d="M31 477v223h106v-223h-106z" />
    <glyph glyph-name="parenleft" unicode="(" horiz-adv-x="311" 
d="M150 0q-89 168 -89 352q0 178 90 347h135q-109 -170 -109 -346q0 -187 108 -353h-135z" />
    <glyph glyph-name="parenright" unicode=")" horiz-adv-x="308" 
d="M160 699q43 -82 66 -171q23 -90 23 -180q0 -179 -90 -348h-135q109 170 109 346q0 75 -20 153q-26 104 -88 200h135z" />
    <glyph glyph-name="asterisk" unicode="*" horiz-adv-x="383" 
d="M342 573v-51h-91l71 -71l-36 -35l-70 70v-91h-51v91l-71 -70l-36 35l71 71h-91v51h91l-71 71l36 36l71 -71v91h51v-91l70 71l36 -36l-71 -71h91z" />
    <glyph glyph-name="plus" unicode="+" horiz-adv-x="467" 
d="M426 400v-101h-152v-154h-102v154h-145v101h145v152h102v-152h152z" />
    <glyph glyph-name="comma" unicode="," horiz-adv-x="186" 
d="M82 116q55 0 67 -44t-10.5 -94.5t-56.5 -71.5v86q-26 0 -44 18t-18 44t18 44t44 18z" />
    <glyph glyph-name="hyphen" unicode="-" horiz-adv-x="443" 
d="M393 405v-106h-352v106h352z" />
    <glyph glyph-name="period" unicode="." horiz-adv-x="180" 
d="M88 120q27 0 45.5 -19t18.5 -45t-18.5 -44t-45.5 -18q-26 0 -44 18t-18 44t18.5 45t43.5 19z" />
    <glyph glyph-name="slash" unicode="/" horiz-adv-x="452" 
d="M325 700h119l-328 -701h-116z" />
    <glyph glyph-name="zero" unicode="0" horiz-adv-x="565" 
d="M486 195q0 -55 -22.5 -97.5t-58.5 -64.5t-79.5 -32.5t-87 0t-79.5 32.5t-58.5 64.5t-22.5 97.5v311q0 55 22.5 97.5t58.5 64.5t79.5 32.5t87 0t79.5 -32.5t58.5 -64.5t22.5 -97.5v-311zM369 515q0 40 -27 63t-60 23t-60 -23t-27 -63v-326q0 -41 27 -64t60 -23t60 23.5
t27 63.5v326z" />
    <glyph glyph-name="one" unicode="1" horiz-adv-x="332" 
d="M255 700v-700h-117v567l-104 -38l-39 84l161 87h99z" />
    <glyph glyph-name="two" unicode="2" horiz-adv-x="490" 
d="M444 117v-117h-408v106l251 345q39 59 20.5 100t-67.5 41q-35 0 -61 -21t-26 -63h-110q0 89 50 145t147 56q71 0 127 -44.5t66.5 -114.5t-47.5 -156l-208 -277h266z" />
    <glyph glyph-name="three" unicode="3" horiz-adv-x="493" 
d="M139 315l147 272h-234v113h412l-157 -292q70 -16 109.5 -68t39.5 -135q0 -107 -61.5 -159t-153.5 -52q-88 0 -150 56.5t-62 147.5h115q0 -39 29.5 -63.5t67.5 -24.5q97 0 97 100q0 43 -26 74t-76 31h-97z" />
    <glyph glyph-name="four" unicode="4" horiz-adv-x="515" 
d="M437 700v-700h-116v212h-289v110l289 378h116zM321 523l-166 -209h166v209z" />
    <glyph glyph-name="five" unicode="5" horiz-adv-x="501" 
d="M247 -7q-89 0 -146.5 53.5t-57.5 150.5h116q0 -44 24.5 -66t63.5 -22q40 0 69 25t29 72q0 117 -98 117h-199v377h376v-110h-259v-158h82q108 0 161 -59t53 -167q0 -97 -63 -155t-151 -58z" />
    <glyph glyph-name="six" unicode="6" horiz-adv-x="472" 
d="M231 -8q-108 0 -164 85t-26 192l150 431h124l-110 -312q19 10 52 10q80 0 129 -60.5t49 -141.5q0 -85 -60 -144.5t-144 -59.5zM149 231q-7 -11 -7 -36q0 -37 26.5 -64t63.5 -27q38 0 64.5 27t26.5 64t-26.5 64t-64.5 27q-27 0 -49.5 -15.5t-33.5 -39.5z" />
    <glyph glyph-name="seven" unicode="7" horiz-adv-x="436" 
d="M49 0l221 586h-252v113h418l-263 -699h-124z" />
    <glyph glyph-name="eight" unicode="8" horiz-adv-x="487" 
d="M368 351q78 -59 78 -146q0 -57 -22.5 -102.5t-58.5 -68.5t-79.5 -34t-87.5 -0.5t-80 34t-58.5 68.5t-22.5 103q0 41 21 81t53 65q-33 26 -53.5 65t-20.5 81q0 57 22.5 102t58.5 68.5t80 34t87.5 -0.5t79.5 -34t58.5 -68t22.5 -102q0 -43 -21 -83t-57 -63zM148 497
q0 -39 27.5 -66.5t65.5 -27.5q39 0 66.5 27.5t27.5 66.5q0 46 -29 72.5t-64.5 27t-64.5 -26t-29 -73.5zM151 205q0 -46 28.5 -72t62 -26t62 26t28.5 72q0 38 -26.5 64t-64.5 26q-37 0 -63.5 -26.5t-26.5 -63.5z" />
    <glyph glyph-name="nine" unicode="9" horiz-adv-x="486" 
d="M236 708q108 0 164 -85t26 -192l-150 -431h-124l110 312q-19 -10 -52 -10q-80 0 -129 60.5t-49 141.5q0 85 60 144.5t144 59.5zM318 469q7 11 7 36q0 37 -26.5 64t-63.5 27t-64 -27t-27 -64t27 -64t64 -27q27 0 49.5 15.5t33.5 39.5z" />
    <glyph glyph-name="colon" unicode=":" horiz-adv-x="180" 
d="M88 120q27 0 45.5 -19t18.5 -45t-18.5 -44t-45.5 -18q-26 0 -44 18t-18 44t18.5 45t43.5 19zM88 405q27 0 45.5 -19t18.5 -45t-18.5 -44t-45.5 -18q-26 0 -44 18.5t-18 43.5q0 26 18.5 45t43.5 19z" />
    <glyph glyph-name="semicolon" unicode=";" horiz-adv-x="181" 
d="M88 405q27 0 45.5 -19t18.5 -45t-18.5 -44t-45.5 -18q-26 0 -44 18.5t-18 43.5q0 26 18.5 45t43.5 19zM82 116q55 0 67 -44t-10.5 -94.5t-56.5 -71.5v86q-26 0 -44 18t-18 44t18 44t44 18z" />
    <glyph glyph-name="less" unicode="&#x3c;" horiz-adv-x="349" 
d="M241 575l67 -69l-155 -164l155 -162l-67 -70l-220 232z" />
    <glyph glyph-name="equal" unicode="=" horiz-adv-x="427" 
d="M387 429v-100h-350v100h350zM387 252v-101h-350v101h350z" />
    <glyph glyph-name="greater" unicode="&#x3e;" horiz-adv-x="346" 
d="M38 506l67 69l220 -233l-220 -232l-67 70l155 162z" />
    <glyph glyph-name="question" unicode="?" horiz-adv-x="490" 
d="M233 710q92 0 151 -55t59 -156q0 -67 -46 -118t-116 -64v-123h-106v211q82 -5 116.5 24t34.5 70q0 94 -93 94q-37 0 -62.5 -20.5t-25.5 -55.5h-116q0 83 59 138t145 55zM164 61q0 40 33.5 57t67 0.5t33.5 -57.5q0 -40 -33.5 -57t-67 -0.5t-33.5 57.5z" />
    <glyph glyph-name="at" unicode="@" horiz-adv-x="895" 
d="M350 525q72 0 123.5 -51.5t51.5 -123.5q0 -28 -10 -58h78v58q0 113 -71 179t-172 66q-114 0 -179 -71.5t-65 -173.5t66 -173.5t178 -71.5h350v-113h-350q-161 0 -260.5 104.5t-99.5 253.5q0 150 100 255t260 105q151 0 255.5 -98t104.5 -262v-175h-360q-73 0 -124 51
t-51 124q0 72 51 123.5t124 51.5zM285 350q0 -27 19 -46t46 -19t46 19t19 46t-19 46t-46 19t-46 -19t-19 -46z" />
    <glyph glyph-name="A" unicode="A" 
d="M433 0l-31 81h-246l-30 -81h-126l279 720l280 -720h-126zM279 425l-85 -243h170z" />
    <glyph glyph-name="B" unicode="B" horiz-adv-x="603" 
d="M428 349q37 -8 63.5 -26t38.5 -38t18 -39.5t6 -31.5l1 -13q0 -54 -21.5 -94t-49.5 -60t-66.5 -31.5t-61 -13.5t-44.5 -2h-233v700h233h13.5t32.5 -3.5t46 -10t49 -21t46 -35t32.5 -53.5t13.5 -74q0 -64 -33.5 -102.5t-83.5 -51.5zM195 584v-176h117q5 0 12.5 0.5t27.5 5
t35.5 13t28 26.5t12.5 42q0 42 -29 64t-58 23l-29 2h-117zM312 116q126 0 126 88q0 42 -31.5 63.5t-62.5 22.5l-32 1h-117v-175h117z" />
    <glyph glyph-name="C" unicode="C" horiz-adv-x="694" 
d="M406 107q97 0 165 68l82 -83q-102 -102 -247 -102q-149 0 -250 99.5t-101 260.5q0 158 98.5 259t252.5 101q146 0 247 -103l-82 -82q-68 68 -165 68q-106 0 -169 -67.5t-63 -175.5q0 -110 66.5 -176.5t165.5 -66.5z" />
    <glyph glyph-name="D" unicode="D" horiz-adv-x="662" 
d="M79 700h117q409 0 409 -350q0 -72 -18 -129.5t-50 -94.5t-71 -63t-87.5 -39t-91.5 -18.5t-91 -5.5h-117v700zM196 114q6 -1 16.5 -2t40.5 0.5t57.5 7t61.5 22t58 41t40.5 68t16.5 99.5q0 57 -16 101t-41.5 68.5t-56.5 41t-62.5 21t-57 6.5t-41.5 0l-16 -2v-472z" />
    <glyph glyph-name="E" unicode="E" horiz-adv-x="588" 
d="M546 583h-350v-175h291v-116h-291v-175h350v-117h-467v700h467v-117z" />
    <glyph glyph-name="F" unicode="F" horiz-adv-x="580" 
d="M546 583h-350v-175h291v-116h-291v-292h-117v700h467v-117z" />
    <glyph glyph-name="G" unicode="G" horiz-adv-x="773" 
d="M466 398h234v-401h-102l-6 66q-79 -73 -199 -73q-146 0 -240.5 96.5t-94.5 263.5q0 154 102 257t248 103t247 -103l-82 -82q-68 68 -165 68q-100 0 -166.5 -65.5t-66.5 -177.5q0 -122 65 -182.5t168 -60.5q106 0 175 79v101h-117v111z" />
    <glyph glyph-name="H" unicode="H" horiz-adv-x="686" 
d="M489 700h117v-700h-117v292h-291v-292h-117v700h117v-290h291v290z" />
    <glyph glyph-name="I" unicode="I" horiz-adv-x="350" 
d="M310 593h-78v-486h82v-107h-281v107h82v486h-78v107h273v-107z" />
    <glyph glyph-name="J" unicode="J" horiz-adv-x="406" 
d="M84 701h243v-497q0 -57 -21 -99t-51.5 -61.5t-60.5 -30.5t-51 -12l-21 -1h-88v117h88q25 0 43 9t26 21.5t13 25.5t6 22v9v390h-126v107z" />
    <glyph glyph-name="K" unicode="K" horiz-adv-x="646" 
d="M629 700l-289 -356l291 -344h-153l-216 266l-66 -74v-192h-117v700h117v-353l287 353h146z" />
    <glyph glyph-name="L" unicode="L" horiz-adv-x="501" 
d="M196 117h259v-117h-376v700h117v-583z" />
    <glyph glyph-name="M" unicode="M" horiz-adv-x="916" 
d="M837 701v-701h-117v430l-201 -430h-110l-214 439v-439h-117v701h119l266 -545l255 545h119z" />
    <glyph glyph-name="N" unicode="N" horiz-adv-x="742" 
d="M662 700v-700h-118l-348 498v-498h-117v700h118l349 -498v498h116z" />
    <glyph glyph-name="O" unicode="O" horiz-adv-x="638" 
d="M317 190q-107 0 -183.5 76.5t-76.5 183.5t76.5 183.5t183.5 76.5t183.5 -76.5t76.5 -183.5t-76.5 -183.5t-183.5 -76.5zM317 594q-60 0 -102 -42t-42 -102t42 -102t102 -42t102 42t42 102t-42 102t-102 42zM545 116v-116h-462v116h462z" />
    <glyph glyph-name="P" unicode="P" horiz-adv-x="583" 
d="M312 700q5 0 13.5 -0.5t32.5 -4.5t46 -11t49 -22.5t46 -36t32.5 -54t13.5 -75.5q0 -57 -24 -99t-58.5 -61.5t-68.5 -30.5t-58 -12l-24 -1h-116v-292h-117v408h111l-111 175v117h233zM327 409q102 13 102 87q0 39 -29 60.5t-58 23.5l-30 3h-94z" />
    <glyph glyph-name="Q" unicode="Q" horiz-adv-x="822" 
d="M696 143l75 -79l-85 -80l-72 75q-92 -68 -207 -68q-147 0 -249 104t-102 257q0 148 99.5 253t251.5 105t252 -105t100 -253q0 -119 -63 -209zM641 352q0 98 -68.5 169.5t-165.5 71.5q-53 0 -101 -23l307 -339q28 51 28 121zM407 108q68 0 126 37l-317 349
q-43 -61 -43 -142q0 -107 67.5 -175.5t166.5 -68.5z" />
    <glyph glyph-name="R" unicode="R" horiz-adv-x="612" 
d="M583 0h-137l-182 292h-67v-292h-117v408h111l-111 175v117h233q5 0 13.5 -0.5t32.5 -4.5t46.5 -11t49.5 -22.5t46 -36t32.5 -54t13.5 -75.5q0 -44 -14 -79t-38 -57t-48.5 -35t-53.5 -21zM219 583l109 -174q21 2 41 8t40.5 26.5t20.5 52.5q0 39 -29 60.5t-59 23.5l-29 3
h-94z" />
    <glyph glyph-name="S" unicode="S" horiz-adv-x="543" 
d="M273 -10q-95 2 -156.5 55.5t-62.5 148.5h117q1 -41 30.5 -64t71.5 -23t72 25t30 65q0 42 -31.5 68.5t-70.5 28.5q-54 0 -105 23q-114 53 -114 179q0 96 65 155t154 59q92 0 153.5 -56.5t62.5 -144.5h-116q-1 41 -29.5 62.5t-70.5 21.5q-44 0 -73 -25t-29 -72
q0 -41 30 -65t72 -24q54 0 104 -23q55 -25 84.5 -74.5t29.5 -112.5q0 -96 -64 -151.5t-154 -55.5z" />
    <glyph glyph-name="T" unicode="T" horiz-adv-x="448" 
d="M430 700v-107h-147v-593h-116v593h-147v107h410z" />
    <glyph glyph-name="U" unicode="U" horiz-adv-x="740" 
d="M79 700h582v-419q0 -72 -35 -142q-36 -72 -102 -110.5t-154 -38.5t-154 38.5t-102 110.5q-35 70 -35 142v419zM520 188q25 47 25 94v301h-350v-302q1 -48 25 -93q43 -81 150 -81q109 0 150 81z" />
    <glyph glyph-name="V" unicode="V" horiz-adv-x="556" 
d="M0 700h559l-279 -729zM172 584l108 -298l107 298h-215z" />
    <glyph glyph-name="W" unicode="W" horiz-adv-x="1001" 
d="M999 700l-280 -728l-219 576l-219 -576l-279 728h126l153 -413l154 413h130l154 -413l154 413h126z" />
    <glyph glyph-name="X" unicode="X" horiz-adv-x="674" 
d="M17 0l250 350l-250 350h143l179 -250l178 250h143l-250 -350l250 -350h-143l-178 250l-179 -250h-143z" />
    <glyph glyph-name="Y" unicode="Y" horiz-adv-x="645" 
d="M500 700h143l-263 -369v-331h-117v331l-263 369h143l179 -250z" />
    <glyph glyph-name="Z" unicode="Z" horiz-adv-x="475" 
d="M440 117v-117h-407l234 583h-235v117h407l-233 -583h234z" />
    <glyph glyph-name="bracketleft" unicode="[" horiz-adv-x="344" 
d="M78 700h233v-117h-116v-466h116v-117h-233v700z" />
    <glyph glyph-name="backslash" unicode="\" horiz-adv-x="454" 
d="M119 700l325 -701h-119l-325 701h119z" />
    <glyph glyph-name="bracketright" unicode="]" horiz-adv-x="352" 
d="M273 700v-700h-233v117h117v466h-117v117h233z" />
    <glyph glyph-name="asciicircum" unicode="^" horiz-adv-x="594" 
d="M430 496l-65 -61l-150 143l-150 -143l-65 61l215 204z" />
    <glyph glyph-name="underscore" unicode="_" horiz-adv-x="539" 
d="M502 -1v-96h-462v96h462z" />
    <glyph glyph-name="grave" unicode="`" horiz-adv-x="265" 
d="M251 628l-48 -81l-184 100l53 85z" />
    <glyph glyph-name="a" unicode="a" 
d="M433 0l-31 81h-246l-30 -81h-126l279 720l280 -720h-126zM279 425l-85 -243h170z" />
    <glyph glyph-name="b" unicode="b" horiz-adv-x="603" 
d="M428 349q37 -8 63.5 -26t38.5 -38t18 -39.5t6 -31.5l1 -13q0 -54 -21.5 -94t-49.5 -60t-66.5 -31.5t-61 -13.5t-44.5 -2h-233v699h233q9 0 25 -0.5t56 -10.5t71 -28.5t56 -59t25 -97.5q0 -64 -33.5 -102.5t-83.5 -51.5zM195 583v-175h117q5 0 12.5 0.5t27.5 5t35.5 13
t28 26.5t12.5 42q0 26 -12 45t-29 27t-34 12t-29 4h-12h-117zM312 116q126 0 126 88q0 42 -31.5 63.5t-62.5 22.5l-32 1h-117v-175h117z" />
    <glyph glyph-name="c" unicode="c" horiz-adv-x="694" 
d="M406 107q97 0 165 68l82 -83q-102 -102 -247 -102q-149 0 -250 99.5t-101 260.5q0 158 98.5 259t252.5 101q146 0 247 -103l-82 -82q-68 68 -165 68q-106 0 -169 -67.5t-63 -175.5q0 -110 66.5 -176.5t165.5 -66.5z" />
    <glyph glyph-name="d" unicode="d" horiz-adv-x="662" 
d="M79 700h117q409 0 409 -350q0 -72 -18 -129.5t-50 -94.5t-71 -63t-87.5 -39t-91.5 -18.5t-91 -5.5h-117v700zM196 114q6 -1 16.5 -2t40.5 0.5t57.5 7t61.5 22t58 41t40.5 68t16.5 99.5q0 57 -16 101t-41.5 68.5t-56.5 41t-62.5 21t-57 6.5t-41.5 0l-16 -2v-472z" />
    <glyph glyph-name="e" unicode="e" horiz-adv-x="588" 
d="M546 583h-350v-175h291v-116h-291v-175h350v-117h-467v700h467v-117z" />
    <glyph glyph-name="f" unicode="f" horiz-adv-x="580" 
d="M546 583h-350v-175h291v-116h-291v-292h-117v700h467v-117z" />
    <glyph glyph-name="g" unicode="g" horiz-adv-x="773" 
d="M397 398h303v-399h-102l-6 64q-79 -73 -199 -73q-146 0 -240.5 96.5t-94.5 263.5q0 154 102 257t248 103t247 -103l-82 -82q-68 68 -165 68q-100 0 -166.5 -65.5t-66.5 -177.5q0 -122 65 -182.5t168 -60.5q106 0 175 79v109h-186v103z" />
    <glyph glyph-name="h" unicode="h" horiz-adv-x="686" 
d="M489 700h117v-700h-117v292h-291v-292h-117v700h117v-290h291v290z" />
    <glyph glyph-name="i" unicode="i" horiz-adv-x="280" 
d="M82 0v700h117v-700h-117z" />
    <glyph glyph-name="j" unicode="j" horiz-adv-x="406" 
d="M210 701h117v-497q0 -57 -21 -99t-51.5 -61.5t-60.5 -30.5t-51 -12l-21 -1h-88v117h88q25 0 43 9t26 21.5t13 25.5t6 22v9v497z" />
    <glyph glyph-name="k" unicode="k" horiz-adv-x="646" 
d="M629 700l-289 -356l291 -344h-153l-216 266l-66 -74v-192h-117v700h117v-353l287 353h146z" />
    <glyph glyph-name="l" unicode="l" horiz-adv-x="501" 
d="M196 117h259v-117h-376v700h117v-583z" />
    <glyph glyph-name="m" unicode="m" horiz-adv-x="916" 
d="M837 701v-701h-117v430l-201 -430h-110l-214 439v-439h-117v701h119l266 -545l255 545h119z" />
    <glyph glyph-name="n" unicode="n" horiz-adv-x="742" 
d="M662 700v-700h-118l-348 498v-498h-117v700h118l349 -498v498h116z" />
    <glyph glyph-name="o" unicode="o" horiz-adv-x="797" 
d="M397 709q83 0 150 -31t108.5 -81.5t64 -115t22.5 -131.5t-22.5 -131.5t-63.5 -115t-108.5 -81.5t-150.5 -31q-84 0 -151.5 31t-109 81.5t-64 115t-22.5 131.5t23 131.5t64.5 115t109 81.5t150.5 31zM397 104q62 0 111 27t74.5 70.5t37 95.5t0 104.5t-37 96t-74.5 70.5
t-111 27q-55 0 -99 -21t-71.5 -55.5t-42 -78.5t-14.5 -90.5t14.5 -90.5t42 -78.5t71.5 -55.5t99 -21z" />
    <glyph glyph-name="p" unicode="p" horiz-adv-x="580" 
d="M313 700q5 0 13.5 -0.5t32.5 -4.5t46.5 -11t49.5 -22.5t46 -36t32.5 -54.5t13.5 -76t-13 -76t-33.5 -54.5t-45.5 -36t-50 -22.5t-45.5 -11t-33.5 -5h-13h-117v-292h-117v702h234zM313 407q5 0 13 0.5t28 5.5t35.5 13t28 26t12.5 43q0 39 -29 61t-59 24l-29 3h-117v-176
h117z" />
    <glyph glyph-name="q" unicode="q" horiz-adv-x="827" 
d="M765 63l-82 -82l-75 74q-90 -65 -204 -65q-154 0 -252 105t-98 255t96 255t254 105q153 0 251.5 -106t98.5 -254q0 -123 -64 -212zM404 106q63 0 120 34l-75 74l83 83l74 -74q32 54 32 127q0 102 -62 172.5t-172 70.5q-106 0 -169.5 -71t-63.5 -172q0 -100 65 -172
t168 -72z" />
    <glyph glyph-name="r" unicode="r" horiz-adv-x="599" 
d="M424 0l-134 292h-95v-292h-117v700h233q5 0 13.5 -0.5t32.5 -4.5t46.5 -11t49.5 -22.5t46 -36t32.5 -54t13.5 -75.5q0 -137 -135 -186l143 -310h-129zM195 583v-175h116q5 0 13 0.5t28 5.5t35.5 13t28 26t12.5 43q0 39 -29 60.5t-59 23.5l-29 3h-116z" />
    <glyph glyph-name="s" unicode="s" horiz-adv-x="543" 
d="M273 -10q-95 2 -156.5 55.5t-62.5 148.5h117q1 -41 30.5 -64t71.5 -23t72 24.5t30 64.5q0 42 -32 69t-70 29q-54 0 -105 23q-114 53 -114 179q0 96 65 155t154 59q92 0 153.5 -56.5t62.5 -144.5h-116q-1 41 -29.5 62.5t-70.5 21.5q-44 0 -73 -25t-29 -72q0 -41 30 -65
t72 -24q54 0 104 -23q55 -25 84.5 -75t29.5 -113q0 -96 -64 -151t-154 -55z" />
    <glyph glyph-name="t" unicode="t" horiz-adv-x="448" 
d="M430 700v-107h-147v-593h-116v593h-147v107h410z" />
    <glyph glyph-name="u" unicode="u" horiz-adv-x="683" 
d="M341 -10q-111 0 -186.5 64.5t-75.5 169.5v476h117v-476q4 -58 45 -87.5t100 -29.5t102.5 31t43.5 86v476h117v-476q0 -109 -74 -171.5t-189 -62.5z" />
    <glyph glyph-name="v" unicode="v" horiz-adv-x="560" 
d="M433 700h126l-280 -718l-279 718h126l153 -413z" />
    <glyph glyph-name="w" unicode="w" horiz-adv-x="1001" 
d="M999 700l-280 -728l-219 576l-219 -576l-279 728h126l153 -413l154 413h130l154 -413l154 413h126z" />
    <glyph glyph-name="x" unicode="x" horiz-adv-x="674" 
d="M17 0l250 350l-250 350h143l179 -250l178 250h143l-250 -350l250 -350h-143l-178 250l-179 -250h-143z" />
    <glyph glyph-name="y" unicode="y" horiz-adv-x="645" 
d="M500 700h143l-263 -369v-331h-117v331l-263 369h143l179 -250z" />
    <glyph glyph-name="z" unicode="z" horiz-adv-x="583" 
d="M567 0h-567l359 583h-329v117h537l-358 -583h358v-117z" />
    <glyph glyph-name="braceleft" unicode="{" horiz-adv-x="346" 
d="M115 415v285h195v-117h-78v-466h78v-117h-195v285l-130 65z" />
    <glyph glyph-name="bar" unicode="|" horiz-adv-x="281" 
d="M72 700h117v-700h-117v700z" />
    <glyph glyph-name="braceright" unicode="}" horiz-adv-x="360" 
d="M235 285v-285h-195v117h78v466h-78v117h195v-285l130 -65z" />
    <glyph glyph-name="asciitilde" unicode="~" horiz-adv-x="464" 
d="M125 263l-97 26q12 80 76.5 102t141.5 -16q42 -19 61 -13q18 6 30 31l97 -28q-18 -58 -51 -83.5t-72 -23.5t-94 23q-4 1 -19.5 7.5t-19.5 7.5t-15.5 2.5t-16.5 -2.5t-11 -11.5t-10 -21.5z" />
    <glyph glyph-name="exclamdown" unicode="&#xa1;" horiz-adv-x="276" 
d="M195 -8h-117v496h117v-496zM137 567q-28 0 -47.5 20t-19.5 47t19.5 46.5t47.5 19.5q27 0 46.5 -19.5t19.5 -46.5t-19.5 -47t-46.5 -20z" />
    <glyph glyph-name="cent" unicode="&#xa2;" horiz-adv-x="580" 
d="M278 -1v72q-99 21 -163 99.5t-64 179.5t64 179t163 99v86h90v-81q99 -10 173 -81q5 -7 0 -12l-64 -64q-8 -8 -15 0h1q-41 38 -95 47v-347q52 9 95 48h-1q7 7 15 0l64 -65q5 -7 0 -12q-71 -71 -173 -81v-67h-90zM168 350q0 -56 30.5 -101t79.5 -64v330q-49 -19 -79.5 -64
t-30.5 -101z" />
    <glyph glyph-name="sterling" unicode="&#xa3;" horiz-adv-x="592" 
d="M202 243q-13 -61 -16 -121h363v-122h-487v61q0 92 16 182h-72v122h105q11 30 24 57q60 122 167 195q54 37 118 57.5t89 23t41 2.5v-122q-9 0 -28.5 -2.5t-67.5 -18.5t-88 -44q-77 -53 -123 -148h111v-122h-152z" />
    <glyph glyph-name="yen" unicode="&#xa5;" horiz-adv-x="640" 
d="M500 700h143l-218 -305h83v-103h-128v-49h128v-101h-128v-142h-117v142h-132v101h132v49h-133v103h87l-217 305h143l179 -250z" />
    <glyph glyph-name="section" unicode="&#xa7;" horiz-adv-x="416" 
d="M283 482q82 -37 84 -133q0 -66 -45 -106q45 -42 45 -108q0 -95 -84 -132q-38 -18 -77 -18q-37 0 -76 18q-84 37 -84 132h85q0 -39 34 -54q19 -9 41 -9q24 0 44 10q32 15 32 53q0 40 -34 55q-20 9 -42 9q-37 0 -76 18q-82 37 -84 133q0 65 45 107q-45 40 -45 107
q0 95 84 132q39 18 76 18q39 0 77 -18q84 -37 84 -132h-85q0 39 -34 54q-8 4 -18 6t-16 3l-7 1l-7 -1q-7 -1 -17.5 -3t-19.5 -6q-32 -17 -32 -54q0 -40 34 -55q9 -4 19 -6.5t16 -2.5h6q39 0 77 -18zM250 296q32 15 32 54t-34 54q-21 9 -41 9q-22 0 -44 -10q-32 -15 -32 -53
q0 -40 34 -55q21 -9 41 -9q22 0 44 10z" />
    <glyph glyph-name="dieresis" unicode="&#xa8;" horiz-adv-x="376" 
d="M147 640q0 -26 -19.5 -45.5t-46.5 -19.5q-26 0 -45.5 19.5t-19.5 45.5q0 27 19.5 46.5t45.5 19.5q27 0 46.5 -19.5t19.5 -46.5zM356 640q0 -26 -19.5 -45.5t-46.5 -19.5q-26 0 -45.5 19.5t-19.5 45.5q0 27 19.5 46.5t45.5 19.5q27 0 46.5 -19.5t19.5 -46.5z" />
    <glyph glyph-name="copyright" unicode="&#xa9;" horiz-adv-x="692" 
d="M344 700q125 0 212.5 -88t87.5 -213q0 -124 -87.5 -211t-212.5 -87q-124 0 -211.5 87t-87.5 211q0 125 87.5 213t211.5 88zM344 178q92 0 157 65t65 156q0 92 -65 157.5t-157 65.5q-91 0 -156.5 -65.5t-65.5 -157.5q0 -91 65.5 -156t156.5 -65zM351 307q38 0 67 27
l34 -32q-42 -42 -101 -42q-57 0 -98.5 41.5t-41.5 98.5q0 58 41.5 100t98.5 42q59 0 101 -42l-34 -33q-28 28 -67 28q-38 0 -65.5 -27.5t-27.5 -67.5q0 -38 27.5 -65.5t65.5 -27.5z" />
    <glyph glyph-name="guillemotleft" unicode="&#xab;" horiz-adv-x="499" 
d="M202 553l75 -60l-125 -173l129 -156l-76 -63l-186 219zM395 553l75 -60l-125 -173l129 -156l-76 -63l-186 219z" />
    <glyph glyph-name="registered" unicode="&#xae;" horiz-adv-x="675" 
d="M339 700q125 0 212.5 -88t87.5 -213q0 -124 -87.5 -211t-212.5 -87q-124 0 -211.5 87t-87.5 211q0 125 87.5 213t211.5 88zM339 186q89 0 151.5 62.5t62.5 150.5q0 90 -62 152.5t-152 62.5q-88 0 -151 -63t-63 -152q0 -88 63 -150.5t151 -62.5zM392 254l-58 120h-40v-120
h-50v289h99q4 0 11 -0.5t24 -5t30 -12.5t24 -25t11 -41q0 -58 -58 -77l61 -128h-54zM294 494v-71h49h5.5t12 2t15 5.5t12 11t5.5 17.5q0 16 -12.5 24.5t-24.5 9.5l-13 1h-49z" />
    <glyph glyph-name="degree" unicode="&#xb0;" horiz-adv-x="365" 
d="M182 409q-63 0 -108 45t-45 108t45 108t108 45t108 -45t45 -108t-45 -108t-108 -45zM182 636q-30 0 -51.5 -22t-21.5 -52t21.5 -51.5t51.5 -21.5t51.5 21.5t21.5 51.5t-21.5 52t-51.5 22z" />
    <glyph glyph-name="plusminus" unicode="&#xb1;" horiz-adv-x="518" 
d="M461 432v-101h-155v-158h-104v158h-156v101h156v155h104v-155h155zM458 29v103h-412v-103h412z" />
    <glyph glyph-name="twosuperior" unicode="&#xb2;" horiz-adv-x="341" 
d="M273 365v-67h-235v60l167 234q-4 18 -18 29.5t-32 11.5q-20 0 -35 -15t-15 -35h-67q0 48 34.5 82.5t82.5 34.5q49 0 83.5 -34.5t34.5 -82.5v-11l-148 -207h148z" />
    <glyph glyph-name="threesuperior" unicode="&#xb3;" horiz-adv-x="333" 
d="M162 299q-49 0 -83 34t-34 83h67q0 -21 14.5 -35.5t35.5 -14.5t35.5 14.5t14.5 35.5q0 19 -12 33t-31 16l-29 1v67h29q19 3 31 17t12 33q0 21 -14.5 35.5t-35.5 14.5t-35.5 -14.5t-14.5 -35.5h-67q0 48 34 82.5t83 34.5q48 0 82.5 -34.5t34.5 -82.5q0 -51 -35 -84
q35 -33 35 -83q0 -49 -34.5 -83t-82.5 -34z" />
    <glyph glyph-name="acute" unicode="&#xb4;" horiz-adv-x="278" 
d="M68 553l-49 82l190 104l53 -84z" />
    <glyph glyph-name="periodcentered" unicode="&#xb7;" horiz-adv-x="204" 
d="M96 421q28 0 48 -20t20 -48q0 -27 -20 -46.5t-48 -19.5q-27 0 -46.5 19.5t-19.5 46.5q0 28 19.5 48t46.5 20z" />
    <glyph glyph-name="cedilla" unicode="&#xb8;" horiz-adv-x="429" 
d="M206 -240q-70 0 -119 49.5t-49 119.5h95q0 -30 21.5 -51.5t51.5 -21.5t51 21.5t21 51.5t-21 51t-51 21v96q69 0 118.5 -49.5t49.5 -118.5q0 -70 -49.5 -119.5t-118.5 -49.5z" />
    <glyph glyph-name="onesuperior" unicode="&#xb9;" horiz-adv-x="267" 
d="M183 700v-346h-68v269l-54 -21l-25 62l90 36h57z" />
    <glyph glyph-name="guillemotright" unicode="&#xbb;" horiz-adv-x="499" 
d="M221 493l75 60l183 -233l-186 -219l-76 63l129 156zM28 493l75 60l183 -233l-186 -219l-76 63l129 156z" />
    <glyph glyph-name="questiondown" unicode="&#xbf;" horiz-adv-x="490" 
d="M247 -10q-92 0 -151 55t-59 156q0 67 46 118t116 64v123h106v-211q-82 5 -116.5 -24t-34.5 -70q0 -94 93 -94q37 0 62.5 20.5t25.5 55.5h116q0 -83 -59 -138t-145 -55zM316 639q0 -40 -33.5 -57t-67 -0.5t-33.5 57.5q0 40 33.5 57t67 0.5t33.5 -57.5z" />
    <glyph glyph-name="Agrave" unicode="&#xc0;" 
d="M433 0l-31 81h-246l-30 -81h-126l279 720l280 -720h-126zM279 425l-85 -243h170zM399 821l-48 -81l-184 100l53 85z" />
    <glyph glyph-name="Aacute" unicode="&#xc1;" 
d="M433 0l-31 81h-246l-30 -81h-126l279 720l280 -720h-126zM279 425l-85 -243h170zM207 739l-49 82l190 104l53 -84z" />
    <glyph glyph-name="Acircumflex" unicode="&#xc2;" 
d="M433 0l-31 81h-246l-30 -81h-126l279 720l280 -720h-126zM279 425l-85 -243h170zM156 728l-48 71l170 99l173 -93l-45 -77l-128 72z" />
    <glyph glyph-name="Atilde" unicode="&#xc3;" 
d="M433 0l-31 81h-246l-30 -81h-126l279 720l280 -720h-126zM279 425l-85 -243h170zM189 748l-81 23q9 73 64 93.5t120 -14.5q37 -18 54 -11q14 6 23 27l81 -25q-15 -53 -43 -76.5t-60.5 -21.5t-79.5 21q-4 2 -16 7t-16.5 6.5t-13.5 2.5t-13.5 -2t-10 -10.5t-8.5 -19.5z" />
    <glyph glyph-name="Adieresis" unicode="&#xc4;" 
d="M433 0l-31 81h-246l-30 -81h-126l279 720l280 -720h-126zM279 425l-85 -243h170zM240 808q0 -26 -19.5 -45.5t-46.5 -19.5q-26 0 -45.5 19.5t-19.5 45.5q0 27 19.5 46.5t45.5 19.5q27 0 46.5 -19.5t19.5 -46.5zM449 808q0 -26 -19.5 -45.5t-46.5 -19.5q-26 0 -45.5 19.5
t-19.5 45.5q0 27 19.5 46.5t45.5 19.5q27 0 46.5 -19.5t19.5 -46.5z" />
    <glyph glyph-name="Aring" unicode="&#xc5;" 
d="M126 0h-126l230 595q-38 14 -62 49t-24 77q0 55 40 95t95 40t95 -40t40 -95q0 -42 -24 -77t-63 -49l232 -595h-126l-31 81h-246zM279 425l-85 -243h170zM279 778q-23 0 -39.5 -17t-16.5 -40t16.5 -39.5t39.5 -16.5t39.5 16.5t16.5 39.5t-16.5 40t-39.5 17z" />
    <glyph glyph-name="AE" unicode="&#xc6;" horiz-adv-x="790" 
d="M734 586h-250v-178h203v-112h-203v-183h262v-113h-379v81h-191l-43 -81h-135l369 697v3h1l1 1v-1h365v-114zM228 191h139l1 155l7 156l-71 -165z" />
    <glyph glyph-name="Ccedilla" unicode="&#xc7;" horiz-adv-x="694" 
d="M406 117q97 0 165 68l82 -83q-56 -56 -131 -83q37 -37 37 -90q0 -70 -49.5 -119.5t-118.5 -49.5q-71 0 -119.5 44t-48.5 113h95q0 -29 21 -45t52 -16q30 0 51 21.5t21 51.5q0 27 -17.5 47t-43.5 24q-143 2 -244.5 104t-101.5 246q0 145 102.5 247.5t247.5 102.5
q146 0 247 -103l-82 -82q-68 68 -165 68t-165 -68t-68 -165t68 -165t165 -68z" />
    <glyph glyph-name="Egrave" unicode="&#xc8;" horiz-adv-x="588" 
d="M546 583h-350v-175h291v-116h-291v-175h350v-117h-467v700h467v-117zM439 833l-48 -81l-184 100l53 85z" />
    <glyph glyph-name="Eacute" unicode="&#xc9;" horiz-adv-x="588" 
d="M546 583h-350v-175h291v-116h-291v-175h350v-117h-467v700h467v-117zM251 753l-49 82l190 104l53 -84z" />
    <glyph glyph-name="Ecircumflex" unicode="&#xca;" horiz-adv-x="588" 
d="M546 583h-350v-175h291v-116h-291v-175h350v-117h-467v700h467v-117zM202 746l-48 71l170 99l173 -93l-45 -77l-128 72z" />
    <glyph glyph-name="Edieresis" unicode="&#xcb;" horiz-adv-x="588" 
d="M546 583h-350v-175h291v-116h-291v-175h350v-117h-467v700h467v-117zM294 815q0 -26 -19.5 -45.5t-46.5 -19.5q-26 0 -45.5 19.5t-19.5 45.5q0 27 19.5 46.5t45.5 19.5q27 0 46.5 -19.5t19.5 -46.5zM503 815q0 -26 -19.5 -45.5t-46.5 -19.5q-26 0 -45.5 19.5t-19.5 45.5
q0 27 19.5 46.5t45.5 19.5q27 0 46.5 -19.5t19.5 -46.5z" />
    <glyph glyph-name="Igrave" unicode="&#xcc;" horiz-adv-x="350" 
d="M310 593h-78v-486h82v-107h-281v107h82v486h-78v107h273v-107zM291 828l-48 -81l-184 100l53 85z" />
    <glyph glyph-name="Iacute" unicode="&#xcd;" horiz-adv-x="350" 
d="M310 593h-78v-486h82v-107h-281v107h82v486h-78v107h273v-107zM102 743l-49 82l190 104l53 -84z" />
    <glyph glyph-name="Icircumflex" unicode="&#xce;" horiz-adv-x="350" 
d="M310 593h-78v-486h82v-107h-281v107h82v486h-78v107h273v-107zM52 750l-48 71l170 99l173 -93l-45 -77l-128 72z" />
    <glyph glyph-name="Idieresis" unicode="&#xcf;" horiz-adv-x="350" 
d="M310 593h-78v-486h82v-107h-281v107h82v486h-78v107h273v-107zM137 819q0 -26 -19.5 -45.5t-46.5 -19.5q-26 0 -45.5 19.5t-19.5 45.5q0 27 19.5 46.5t45.5 19.5q27 0 46.5 -19.5t19.5 -46.5zM346 819q0 -26 -19.5 -45.5t-46.5 -19.5q-26 0 -45.5 19.5t-19.5 45.5
q0 27 19.5 46.5t45.5 19.5q27 0 46.5 -19.5t19.5 -46.5z" />
    <glyph glyph-name="Eth" unicode="&#xd0;" horiz-adv-x="662" 
d="M79 700h117q409 0 409 -350q0 -72 -18 -129.5t-50 -94.5t-71 -63t-87.5 -39t-91.5 -18.5t-91 -5.5h-117v292h-76v106h76v302zM196 114q6 -1 16.5 -2t40.5 0.5t57.5 7t61.5 22t58 41t40.5 68t16.5 99.5q0 57 -16 101t-41.5 68.5t-56.5 41t-62.5 21t-57 6.5t-41.5 0l-16 -2
v-188h131v-106h-131v-178z" />
    <glyph glyph-name="Ntilde" unicode="&#xd1;" horiz-adv-x="742" 
d="M662 700v-700h-118l-348 498v-498h-117v700h118l349 -498v498h116zM283 773l-81 23q9 73 64 93.5t120 -14.5q37 -18 54 -11q14 6 23 27l81 -25q-15 -53 -43 -76.5t-60.5 -21.5t-79.5 21q-4 2 -16 7t-16.5 6.5t-13.5 2.5t-13.5 -2t-10 -10.5t-8.5 -19.5z" />
    <glyph glyph-name="Ograve" unicode="&#xd2;" horiz-adv-x="638" 
d="M317 190q-107 0 -183.5 76.5t-76.5 183.5t76.5 183.5t183.5 76.5t183.5 -76.5t76.5 -183.5t-76.5 -183.5t-183.5 -76.5zM317 594q-60 0 -102 -42t-42 -102t42 -102t102 -42t102 42t42 102t-42 102t-102 42zM545 116v-116h-462v116h462zM435 828l-48 -81l-184 100l53 85z
" />
    <glyph glyph-name="Oacute" unicode="&#xd3;" horiz-adv-x="638" 
d="M317 190q-107 0 -183.5 76.5t-76.5 183.5t76.5 183.5t183.5 76.5t183.5 -76.5t76.5 -183.5t-76.5 -183.5t-183.5 -76.5zM317 594q-60 0 -102 -42t-42 -102t42 -102t102 -42t102 42t42 102t-42 102t-102 42zM545 116v-116h-462v116h462zM246 753l-49 82l190 104l53 -84z
" />
    <glyph glyph-name="Ocircumflex" unicode="&#xd4;" horiz-adv-x="638" 
d="M317 190q-107 0 -183.5 76.5t-76.5 183.5t76.5 183.5t183.5 76.5t183.5 -76.5t76.5 -183.5t-76.5 -183.5t-183.5 -76.5zM317 594q-60 0 -102 -42t-42 -102t42 -102t102 -42t102 42t42 102t-42 102t-102 42zM545 116v-116h-462v116h462zM195 744l-48 71l170 99l173 -93
l-45 -77l-128 72z" />
    <glyph glyph-name="Otilde" unicode="&#xd5;" horiz-adv-x="638" 
d="M317 190q-107 0 -183.5 76.5t-76.5 183.5t76.5 183.5t183.5 76.5t183.5 -76.5t76.5 -183.5t-76.5 -183.5t-183.5 -76.5zM317 594q-60 0 -102 -42t-42 -102t42 -102t102 -42t102 42t42 102t-42 102t-102 42zM545 116v-116h-462v116h462zM229 764l-81 23q9 73 64 93.5
t120 -14.5q37 -18 54 -11q14 6 23 27l81 -25q-15 -53 -43 -76.5t-60.5 -21.5t-79.5 21q-4 2 -16 7t-16.5 6.5t-13.5 2.5t-13.5 -2t-10 -10.5t-8.5 -19.5z" />
    <glyph glyph-name="Odieresis" unicode="&#xd6;" horiz-adv-x="638" 
d="M317 190q-107 0 -183.5 76.5t-76.5 183.5t76.5 183.5t183.5 76.5t183.5 -76.5t76.5 -183.5t-76.5 -183.5t-183.5 -76.5zM317 594q-60 0 -102 -42t-42 -102t42 -102t102 -42t102 42t42 102t-42 102t-102 42zM545 116v-116h-462v116h462zM280 810q0 -26 -19.5 -45.5
t-46.5 -19.5q-26 0 -45.5 19.5t-19.5 45.5q0 27 19.5 46.5t45.5 19.5q27 0 46.5 -19.5t19.5 -46.5zM489 810q0 -26 -19.5 -45.5t-46.5 -19.5q-26 0 -45.5 19.5t-19.5 45.5q0 27 19.5 46.5t45.5 19.5q27 0 46.5 -19.5t19.5 -46.5z" />
    <glyph glyph-name="multiply" unicode="&#xd7;" horiz-adv-x="403" 
d="M366 236l-71 -70l-104 104l-103 -104l-70 70l104 104l-105 103l71 71l105 -105l103 104l70 -70l-104 -103z" />
    <glyph glyph-name="Oslash" unicode="&#xd8;" horiz-adv-x="638" 
d="M317 180q-51 0 -98 19l-28 -40h-119l64 94q-79 77 -79 187q0 107 76.5 183.5t183.5 76.5q56 0 109 -24l34 50h122l-75 -109q70 -77 70 -177q0 -107 -76.5 -183.5t-183.5 -76.5zM545 116v-116h-462v116h462zM317 584q-60 0 -102 -42t-42 -102q0 -51 30 -89l156 227
q-20 6 -42 6zM461 440q0 41 -23 77l-151 -218q15 -3 30 -3q60 0 102 42t42 102z" />
    <glyph glyph-name="Ugrave" unicode="&#xd9;" horiz-adv-x="740" 
d="M79 700h582v-419q0 -72 -35 -142q-36 -72 -102 -110.5t-154 -38.5t-154 38.5t-102 110.5q-35 70 -35 142v419zM520 188q25 47 25 94v301h-350v-302q1 -48 25 -93q43 -81 150 -81q109 0 150 81zM486 828l-48 -81l-184 100l53 85z" />
    <glyph glyph-name="Uacute" unicode="&#xda;" horiz-adv-x="740" 
d="M79 700h582v-419q0 -72 -35 -142q-36 -72 -102 -110.5t-154 -38.5t-154 38.5t-102 110.5q-35 70 -35 142v419zM520 188q25 47 25 94v301h-350v-302q1 -48 25 -93q43 -81 150 -81q109 0 150 81zM297 753l-49 82l190 104l53 -84z" />
    <glyph glyph-name="Ucircumflex" unicode="&#xdb;" horiz-adv-x="740" 
d="M79 700h582v-419q0 -72 -35 -142q-36 -72 -102 -110.5t-154 -38.5t-154 38.5t-102 110.5q-35 70 -35 142v419zM520 188q25 47 25 94v301h-350v-302q1 -48 25 -93q43 -81 150 -81q109 0 150 81zM246 759l-48 71l170 99l173 -93l-45 -77l-128 72z" />
    <glyph glyph-name="Udieresis" unicode="&#xdc;" horiz-adv-x="740" 
d="M79 700h582v-419q0 -72 -35 -142q-36 -72 -102 -110.5t-154 -38.5t-154 38.5t-102 110.5q-35 70 -35 142v419zM520 188q25 47 25 94v301h-350v-302q1 -48 25 -93q43 -81 150 -81q109 0 150 81zM331 825q0 -26 -19.5 -45.5t-46.5 -19.5q-26 0 -45.5 19.5t-19.5 45.5
q0 27 19.5 46.5t45.5 19.5q27 0 46.5 -19.5t19.5 -46.5zM540 825q0 -26 -19.5 -45.5t-46.5 -19.5q-26 0 -45.5 19.5t-19.5 45.5q0 27 19.5 46.5t45.5 19.5q27 0 46.5 -19.5t19.5 -46.5z" />
    <glyph glyph-name="Yacute" unicode="&#xdd;" horiz-adv-x="645" 
d="M500 700h143l-263 -369v-331h-117v331l-263 369h143l179 -250zM250 742l-49 82l190 104l53 -84z" />
    <glyph glyph-name="Thorn" unicode="&#xde;" horiz-adv-x="583" 
d="M312 558q5 0 13.5 -0.5t32.5 -4.5t46 -11t49 -22.5t46 -36t32.5 -54t13.5 -75.5q0 -57 -24 -99t-58.5 -61.5t-68.5 -30.5t-58 -12l-24 -1h-116v-150h-117v266h111l-111 175v260h117v-143h116zM327 267q102 13 102 87q0 39 -29 60.5t-58 23.5l-30 3h-94z" />
    <glyph glyph-name="germandbls" unicode="&#xdf;" horiz-adv-x="592" 
d="M203 585l-1 -585h-123v699h233q5 0 13.5 -0.5t32.5 -4.5t46 -11t49 -22.5t46 -36t32.5 -54t13.5 -75.5q0 -39 -12 -68.5t-29 -43.5t-34 -22.5t-29 -10.5l-12 -1q52 -8 82.5 -44t35.5 -69l5 -32q0 -42 -13 -75.5t-34.5 -54t-47 -36t-51 -22.5t-47 -11t-34.5 -5h-13v116
q5 0 13.5 0.5t30 5.5t37.5 13t29.5 26t13.5 43q0 39 -31 60.5t-62 23.5l-31 3v117q5 0 13 0.5t28 5t35.5 13t28 26.5t12.5 42t-12 42t-29 26.5t-34.5 13.5t-29.5 7l-12 1h-109z" />
    <glyph glyph-name="agrave" unicode="&#xe0;" 
d="M433 0l-31 81h-246l-30 -81h-126l279 720l280 -720h-126zM279 425l-85 -243h170zM399 821l-48 -81l-184 100l53 85z" />
    <glyph glyph-name="aacute" unicode="&#xe1;" 
d="M433 0l-31 81h-246l-30 -81h-126l279 720l280 -720h-126zM279 425l-85 -243h170zM207 739l-49 82l190 104l53 -84z" />
    <glyph glyph-name="acircumflex" unicode="&#xe2;" 
d="M433 0l-31 81h-246l-30 -81h-126l279 720l280 -720h-126zM279 425l-85 -243h170zM156 728l-48 71l170 99l173 -93l-45 -77l-128 72z" />
    <glyph glyph-name="atilde" unicode="&#xe3;" 
d="M433 0l-31 81h-246l-30 -81h-126l279 720l280 -720h-126zM279 425l-85 -243h170zM189 748l-81 23q9 73 64 93.5t120 -14.5q37 -18 54 -11q14 6 23 27l81 -25q-15 -53 -43 -76.5t-60.5 -21.5t-79.5 21q-4 2 -16 7t-16.5 6.5t-13.5 2.5t-13.5 -2t-10 -10.5t-8.5 -19.5z" />
    <glyph glyph-name="adieresis" unicode="&#xe4;" 
d="M433 0l-31 81h-246l-30 -81h-126l279 720l280 -720h-126zM279 425l-85 -243h170zM240 808q0 -26 -19.5 -45.5t-46.5 -19.5q-26 0 -45.5 19.5t-19.5 45.5q0 27 19.5 46.5t45.5 19.5q27 0 46.5 -19.5t19.5 -46.5zM449 808q0 -26 -19.5 -45.5t-46.5 -19.5q-26 0 -45.5 19.5
t-19.5 45.5q0 27 19.5 46.5t45.5 19.5q27 0 46.5 -19.5t19.5 -46.5z" />
    <glyph glyph-name="aring" unicode="&#xe5;" 
d="M126 0h-126l230 595q-38 14 -62 49t-24 77q0 55 40 95t95 40t95 -40t40 -95q0 -42 -24 -77t-63 -49l232 -595h-126l-31 81h-246zM279 425l-85 -243h170zM279 778q-23 0 -39.5 -17t-16.5 -40t16.5 -39.5t39.5 -16.5t39.5 16.5t16.5 39.5t-16.5 40t-39.5 17z" />
    <glyph glyph-name="ae" unicode="&#xe6;" horiz-adv-x="790" 
d="M734 586h-250v-178h203v-112h-203v-183h262v-113h-379v81h-191l-43 -81h-135l369 697v3h1l1 1v-1h365v-114zM228 191h139l1 155l7 156l-71 -165z" />
    <glyph glyph-name="ccedilla" unicode="&#xe7;" horiz-adv-x="694" 
d="M406 117q97 0 165 68l82 -83q-56 -56 -131 -83q37 -37 37 -90q0 -70 -49.5 -119.5t-118.5 -49.5q-71 0 -119.5 44t-48.5 113h95q0 -29 21 -45t52 -16q30 0 51 21.5t21 51.5q0 27 -17.5 47t-43.5 24q-143 2 -244.5 104t-101.5 246q0 145 102.5 247.5t247.5 102.5
q146 0 247 -103l-82 -82q-68 68 -165 68t-165 -68t-68 -165t68 -165t165 -68z" />
    <glyph glyph-name="egrave" unicode="&#xe8;" horiz-adv-x="588" 
d="M546 583h-350v-175h291v-116h-291v-175h350v-117h-467v700h467v-117zM439 833l-48 -81l-184 100l53 85z" />
    <glyph glyph-name="eacute" unicode="&#xe9;" horiz-adv-x="588" 
d="M546 583h-350v-175h291v-116h-291v-175h350v-117h-467v700h467v-117zM251 753l-49 82l190 104l53 -84z" />
    <glyph glyph-name="ecircumflex" unicode="&#xea;" horiz-adv-x="588" 
d="M546 583h-350v-175h291v-116h-291v-175h350v-117h-467v700h467v-117zM202 746l-48 71l170 99l173 -93l-45 -77l-128 72z" />
    <glyph glyph-name="edieresis" unicode="&#xeb;" horiz-adv-x="588" 
d="M546 583h-350v-175h291v-116h-291v-175h350v-117h-467v700h467v-117zM294 815q0 -26 -19.5 -45.5t-46.5 -19.5q-26 0 -45.5 19.5t-19.5 45.5q0 27 19.5 46.5t45.5 19.5q27 0 46.5 -19.5t19.5 -46.5zM503 815q0 -26 -19.5 -45.5t-46.5 -19.5q-26 0 -45.5 19.5t-19.5 45.5
q0 27 19.5 46.5t45.5 19.5q27 0 46.5 -19.5t19.5 -46.5z" />
    <glyph glyph-name="igrave" unicode="&#xec;" horiz-adv-x="280" 
d="M82 0v700h117v-700h-117zM256 816l-48 -81l-184 100l53 85z" />
    <glyph glyph-name="iacute" unicode="&#xed;" horiz-adv-x="280" 
d="M82 0v700h117v-700h-117zM68 740l-49 82l190 104l53 -84z" />
    <glyph glyph-name="icircumflex" unicode="&#xee;" horiz-adv-x="280" 
d="M82 0v700h117v-700h-117zM17 733l-48 71l170 99l173 -93l-45 -77l-128 72z" />
    <glyph glyph-name="idieresis" unicode="&#xef;" horiz-adv-x="280" 
d="M82 0v700h117v-700h-117zM101 808q0 -26 -19.5 -45.5t-46.5 -19.5q-26 0 -45.5 19.5t-19.5 45.5q0 27 19.5 46.5t45.5 19.5q27 0 46.5 -19.5t19.5 -46.5zM310 808q0 -26 -19.5 -45.5t-46.5 -19.5q-26 0 -45.5 19.5t-19.5 45.5q0 27 19.5 46.5t45.5 19.5q27 0 46.5 -19.5
t19.5 -46.5z" />
    <glyph glyph-name="eth" unicode="&#xf0;" horiz-adv-x="662" 
d="M79 700h117q409 0 409 -350q0 -72 -18 -129.5t-50 -94.5t-71 -63t-87.5 -39t-91.5 -18.5t-91 -5.5h-117v292h-76v106h76v302zM196 114q6 -1 16.5 -2t40.5 0.5t57.5 7t61.5 22t58 41t40.5 68t16.5 99.5q0 57 -16 101t-41.5 68.5t-56.5 41t-62.5 21t-57 6.5t-41.5 0l-16 -2
v-188h131v-106h-131v-178z" />
    <glyph glyph-name="ntilde" unicode="&#xf1;" horiz-adv-x="742" 
d="M662 700v-700h-118l-348 498v-498h-117v700h118l349 -498v498h116zM283 773l-81 23q9 73 64 93.5t120 -14.5q37 -18 54 -11q14 6 23 27l81 -25q-15 -53 -43 -76.5t-60.5 -21.5t-79.5 21q-4 2 -16 7t-16.5 6.5t-13.5 2.5t-13.5 -2t-10 -10.5t-8.5 -19.5z" />
    <glyph glyph-name="ograve" unicode="&#xf2;" horiz-adv-x="797" 
d="M397 709q83 0 150 -31t108.5 -81.5t64 -115t22.5 -131.5t-22.5 -131.5t-63.5 -115t-108.5 -81.5t-150.5 -31q-84 0 -151.5 31t-109 81.5t-64 115t-22.5 131.5t23 131.5t64.5 115t109 81.5t150.5 31zM397 104q62 0 111 27t74.5 70.5t37 95.5t0 104.5t-37 96t-74.5 70.5
t-111 27q-55 0 -99 -21t-71.5 -55.5t-42 -78.5t-14.5 -90.5t14.5 -90.5t42 -78.5t71.5 -55.5t99 -21zM513 833l-48 -81l-184 100l53 85z" />
    <glyph glyph-name="oacute" unicode="&#xf3;" horiz-adv-x="797" 
d="M397 709q83 0 150 -31t108.5 -81.5t64 -115t22.5 -131.5t-22.5 -131.5t-63.5 -115t-108.5 -81.5t-150.5 -31q-84 0 -151.5 31t-109 81.5t-64 115t-22.5 131.5t23 131.5t64.5 115t109 81.5t150.5 31zM397 104q62 0 111 27t74.5 70.5t37 95.5t0 104.5t-37 96t-74.5 70.5
t-111 27q-55 0 -99 -21t-71.5 -55.5t-42 -78.5t-14.5 -90.5t14.5 -90.5t42 -78.5t71.5 -55.5t99 -21zM333 753l-49 82l190 104l53 -84z" />
    <glyph glyph-name="ocircumflex" unicode="&#xf4;" horiz-adv-x="797" 
d="M397 709q83 0 150 -31t108.5 -81.5t64 -115t22.5 -131.5t-22.5 -131.5t-63.5 -115t-108.5 -81.5t-150.5 -31q-84 0 -151.5 31t-109 81.5t-64 115t-22.5 131.5t23 131.5t64.5 115t109 81.5t150.5 31zM397 104q62 0 111 27t74.5 70.5t37 95.5t0 104.5t-37 96t-74.5 70.5
t-111 27q-55 0 -99 -21t-71.5 -55.5t-42 -78.5t-14.5 -90.5t14.5 -90.5t42 -78.5t71.5 -55.5t99 -21zM275 746l-48 71l170 99l173 -93l-45 -77l-128 72z" />
    <glyph glyph-name="otilde" unicode="&#xf5;" horiz-adv-x="797" 
d="M397 709q83 0 150 -31t108.5 -81.5t64 -115t22.5 -131.5t-22.5 -131.5t-63.5 -115t-108.5 -81.5t-150.5 -31q-84 0 -151.5 31t-109 81.5t-64 115t-22.5 131.5t23 131.5t64.5 115t109 81.5t150.5 31zM397 104q62 0 111 27t74.5 70.5t37 95.5t0 104.5t-37 96t-74.5 70.5
t-111 27q-55 0 -99 -21t-71.5 -55.5t-42 -78.5t-14.5 -90.5t14.5 -90.5t42 -78.5t71.5 -55.5t99 -21zM314 772l-81 23q9 73 64 93.5t120 -14.5q37 -18 54 -11q14 6 23 27l81 -25q-15 -53 -43 -76.5t-60.5 -21.5t-79.5 21q-4 2 -16 7t-16.5 6.5t-13.5 2.5t-13.5 -2t-10 -10.5
t-8.5 -19.5z" />
    <glyph glyph-name="odieresis" unicode="&#xf6;" horiz-adv-x="797" 
d="M397 709q83 0 150 -31t108.5 -81.5t64 -115t22.5 -131.5t-22.5 -131.5t-63.5 -115t-108.5 -81.5t-150.5 -31q-84 0 -151.5 31t-109 81.5t-64 115t-22.5 131.5t23 131.5t64.5 115t109 81.5t150.5 31zM397 104q62 0 111 27t74.5 70.5t37 95.5t0 104.5t-37 96t-74.5 70.5
t-111 27q-55 0 -99 -21t-71.5 -55.5t-42 -78.5t-14.5 -90.5t14.5 -90.5t42 -78.5t71.5 -55.5t99 -21zM359 821q0 -26 -19.5 -45.5t-46.5 -19.5q-26 0 -45.5 19.5t-19.5 45.5q0 27 19.5 46.5t45.5 19.5q27 0 46.5 -19.5t19.5 -46.5zM568 821q0 -26 -19.5 -45.5t-46.5 -19.5
q-26 0 -45.5 19.5t-19.5 45.5q0 27 19.5 46.5t45.5 19.5q27 0 46.5 -19.5t19.5 -46.5z" />
    <glyph glyph-name="divide" unicode="&#xf7;" horiz-adv-x="490" 
d="M462 288v103h-425v-103h425zM250 239q29 0 49.5 -20t20.5 -49t-20.5 -49t-49.5 -20q-28 0 -48.5 20.5t-20.5 48.5t20.5 48.5t48.5 20.5zM250 574q29 0 49.5 -20t20.5 -49t-20.5 -49t-49.5 -20q-28 0 -48.5 20t-20.5 49t20.5 49t48.5 20z" />
    <glyph glyph-name="oslash" unicode="&#xf8;" horiz-adv-x="797" 
d="M397 709q66 0 127 -21l43 77h119l-72 -128q55 -44 87 -110.5t39 -137.5t-12 -142.5t-60 -127.5t-111.5 -91t-159.5 -35q-73 0 -133 23l-45 -81h-116l73 131q-41 34 -69.5 80.5t-42 97.5t-13.5 106t13 106.5t42 97.5t69 80.5t97.5 54.5t124.5 20zM397 106q68 0 119 31.5
t75.5 81t31 106t-11.5 112.5t-56 95l-234 -415q36 -11 76 -11zM397 595q-67 0 -118 -31t-76 -80t-32 -105.5t10 -112t54 -94.5l231 413q-35 10 -69 10z" />
    <glyph glyph-name="ugrave" unicode="&#xf9;" horiz-adv-x="683" 
d="M341 -10q-111 0 -186.5 64.5t-75.5 169.5v476h117v-476q4 -58 45 -87.5t100 -29.5t102.5 31t43.5 86v476h117v-476q0 -109 -74 -171.5t-189 -62.5zM443 821l-48 -81l-184 100l53 85z" />
    <glyph glyph-name="uacute" unicode="&#xfa;" horiz-adv-x="683" 
d="M341 -10q-111 0 -186.5 64.5t-75.5 169.5v476h117v-476q4 -58 45 -87.5t100 -29.5t102.5 31t43.5 86v476h117v-476q0 -109 -74 -171.5t-189 -62.5zM277 737l-49 82l190 104l53 -84z" />
    <glyph glyph-name="ucircumflex" unicode="&#xfb;" horiz-adv-x="683" 
d="M341 -10q-111 0 -186.5 64.5t-75.5 169.5v476h117v-476q4 -58 45 -87.5t100 -29.5t102.5 31t43.5 86v476h117v-476q0 -109 -74 -171.5t-189 -62.5zM218 744l-48 71l170 99l173 -93l-45 -77l-128 72z" />
    <glyph glyph-name="udieresis" unicode="&#xfc;" horiz-adv-x="683" 
d="M341 -10q-111 0 -186.5 64.5t-75.5 169.5v476h117v-476q4 -58 45 -87.5t100 -29.5t102.5 31t43.5 86v476h117v-476q0 -109 -74 -171.5t-189 -62.5zM302 816q0 -26 -19.5 -45.5t-46.5 -19.5q-26 0 -45.5 19.5t-19.5 45.5q0 27 19.5 46.5t45.5 19.5q27 0 46.5 -19.5
t19.5 -46.5zM511 816q0 -26 -19.5 -45.5t-46.5 -19.5q-26 0 -45.5 19.5t-19.5 45.5q0 27 19.5 46.5t45.5 19.5q27 0 46.5 -19.5t19.5 -46.5z" />
    <glyph glyph-name="yacute" unicode="&#xfd;" horiz-adv-x="645" 
d="M500 700h143l-263 -369v-331h-117v331l-263 369h143l179 -250zM254 745l-49 82l190 104l53 -84z" />
    <glyph glyph-name="thorn" unicode="&#xfe;" horiz-adv-x="580" 
d="M313 564q5 0 13.5 -0.5t32.5 -4.5t46.5 -11t49.5 -22.5t46 -36t32.5 -54.5t13.5 -76t-13 -76t-33.5 -54.5t-45.5 -36t-50 -22.5t-45.5 -11t-33.5 -5h-13h-117v-156h-117v702h117v-136h117zM313 271q5 0 13 0.5t28 5.5t35.5 13t28 26t12.5 43q0 39 -29 61t-59 24l-29 3
h-117v-176h117z" />
    <glyph glyph-name="ydieresis" unicode="&#xff;" horiz-adv-x="645" 
d="M500 700h143l-263 -369v-331h-117v331l-263 369h143l179 -250zM283 815q0 -26 -19.5 -45.5t-46.5 -19.5q-26 0 -45.5 19.5t-19.5 45.5q0 27 19.5 46.5t45.5 19.5q27 0 46.5 -19.5t19.5 -46.5zM492 815q0 -26 -19.5 -45.5t-46.5 -19.5q-26 0 -45.5 19.5t-19.5 45.5
q0 27 19.5 46.5t45.5 19.5q27 0 46.5 -19.5t19.5 -46.5z" />
    <glyph glyph-name="Abreve" unicode="&#x102;" 
d="M433 0l-31 81h-246l-30 -81h-126l279 720l280 -720h-126zM279 425l-85 -243h170zM341 891h91q0 -78 -41 -114t-107 -36q-68 0 -113.5 36.5t-45.5 113.5h91q1 -31 20.5 -49t42 -18t42 18t20.5 49z" />
    <glyph glyph-name="abreve" unicode="&#x103;" 
d="M433 0l-31 81h-246l-30 -81h-126l279 720l280 -720h-126zM279 425l-85 -243h170zM342 887h91q0 -78 -41 -114t-107 -36q-68 0 -113.5 36.5t-45.5 113.5h91q1 -31 20.5 -49t42 -18t42 18t20.5 49z" />
    <glyph glyph-name="Aogonek" unicode="&#x104;" 
d="M559 0q-59 -4 -82.5 -36t-7.5 -61q11 -20 33 -23t42 4t38 19l25 -78q-27 -17 -61.5 -26t-69.5 -7.5t-63.5 22.5t-39.5 59q-23 77 56 136l-27 72h-246l-30 -81h-126l279 720zM279 425l-85 -243h170z" />
    <glyph glyph-name="aogonek" unicode="&#x105;" 
d="M559 0q-59 -4 -82.5 -36t-7.5 -61q11 -20 33 -23t42 4t38 19l25 -78q-27 -17 -61.5 -26t-69.5 -7.5t-63.5 22.5t-39.5 59q-23 77 56 136l-27 72h-246l-30 -81h-126l279 720zM279 425l-85 -243h170z" />
    <glyph glyph-name="Cacute" unicode="&#x106;" horiz-adv-x="694" 
d="M406 107q97 0 165 68l82 -83q-102 -102 -247 -102q-149 0 -250 99.5t-101 260.5q0 158 98.5 259t252.5 101q146 0 247 -103l-82 -82q-68 68 -165 68q-106 0 -169 -67.5t-63 -175.5q0 -110 66.5 -176.5t165.5 -66.5zM332 741l-49 82l190 104l53 -84z" />
    <glyph glyph-name="cacute" unicode="&#x107;" horiz-adv-x="694" 
d="M406 107q97 0 165 68l82 -83q-102 -102 -247 -102q-149 0 -250 99.5t-101 260.5q0 158 98.5 259t252.5 101q146 0 247 -103l-82 -82q-68 68 -165 68q-106 0 -169 -67.5t-63 -175.5q0 -110 66.5 -176.5t165.5 -66.5zM336 745l-49 82l190 104l53 -84z" />
    <glyph glyph-name="Ccaron" unicode="&#x10c;" horiz-adv-x="694" 
d="M406 107q97 0 165 68l82 -83q-102 -102 -247 -102q-149 0 -250 99.5t-101 260.5q0 158 98.5 259t252.5 101q146 0 247 -103l-82 -82q-68 68 -165 68q-106 0 -169 -67.5t-63 -175.5q0 -110 66.5 -176.5t165.5 -66.5zM519 909l48 -71l-170 -99l-173 93l45 77l128 -72z" />
    <glyph glyph-name="ccaron" unicode="&#x10d;" horiz-adv-x="694" 
d="M406 107q97 0 165 68l82 -83q-102 -102 -247 -102q-149 0 -250 99.5t-101 260.5q0 158 98.5 259t252.5 101q146 0 247 -103l-82 -82q-68 68 -165 68q-106 0 -169 -67.5t-63 -175.5q0 -110 66.5 -176.5t165.5 -66.5zM526 911l48 -71l-170 -99l-173 93l45 77l128 -72z" />
    <glyph glyph-name="Dcaron" unicode="&#x10e;" horiz-adv-x="662" 
d="M79 700h117q409 0 409 -350q0 -72 -18 -129.5t-50 -94.5t-71 -63t-87.5 -39t-91.5 -18.5t-91 -5.5h-117v700zM196 114q6 -1 16.5 -2t40.5 0.5t57.5 7t61.5 22t58 41t40.5 68t16.5 99.5q0 57 -16 101t-41.5 68.5t-56.5 41t-62.5 21t-57 6.5t-41.5 0l-16 -2v-472zM424 913
l48 -71l-170 -99l-173 93l45 77l128 -72z" />
    <glyph glyph-name="dcaron" unicode="&#x10f;" horiz-adv-x="662" 
d="M79 700h117q409 0 409 -350q0 -72 -18 -129.5t-50 -94.5t-71 -63t-87.5 -39t-91.5 -18.5t-91 -5.5h-117v700zM196 114q6 -1 16.5 -2t40.5 0.5t57.5 7t61.5 22t58 41t40.5 68t16.5 99.5q0 57 -16 101t-41.5 68.5t-56.5 41t-62.5 21t-57 6.5t-41.5 0l-16 -2v-472zM402 911
l48 -71l-170 -99l-173 93l45 77l128 -72z" />
    <glyph glyph-name="Dcroat" unicode="&#x110;" horiz-adv-x="662" 
d="M13 294v104h66v302h117q409 0 409 -350q0 -72 -18 -129.5t-50 -94.5t-71 -63t-87.5 -39t-91.5 -18.5t-91 -5.5h-117v294h-66zM196 114q6 -1 16.5 -2t40.5 0.5t57.5 7t61.5 22t58 41t40.5 68t16.5 99.5q0 57 -16 101t-41.5 68.5t-56.5 41t-62.5 21t-57 6.5t-41.5 0l-16 -2
v-188h134v-104h-134v-180z" />
    <glyph glyph-name="dcroat" unicode="&#x111;" horiz-adv-x="633" 
d="M13 294v104h66v302h117q409 0 409 -350q0 -72 -18 -129.5t-50 -94.5t-71 -63t-87.5 -39t-91.5 -18.5t-91 -5.5h-117v294h-66zM196 114q6 -1 16.5 -2t40.5 0.5t57.5 7t61.5 22t58 41t40.5 68t16.5 99.5q0 57 -16 101t-41.5 68.5t-56.5 41t-62.5 21t-57 6.5t-41.5 0l-16 -2
v-188h134v-104h-134v-180z" />
    <glyph glyph-name="Eogonek" unicode="&#x118;" horiz-adv-x="588" 
d="M546 583h-350v-175h291v-116h-291v-175h350v-117q-61 0 -84.5 -33.5t-7.5 -63.5q11 -20 33 -23t42 4t38 19l25 -78q-26 -17 -61.5 -26.5t-70.5 -8t-64.5 21t-39.5 57.5q-12 39 6 77.5t56 53.5h-339v700h467v-117z" />
    <glyph glyph-name="eogonek" unicode="&#x119;" horiz-adv-x="588" 
d="M546 583h-350v-175h291v-116h-291v-175h350v-117q-61 0 -84.5 -33.5t-7.5 -63.5q11 -20 33 -23t42 4t38 19l25 -78q-26 -17 -61.5 -26.5t-70.5 -8t-64.5 21t-39.5 57.5q-12 39 6 77.5t56 53.5h-339v700h467v-117z" />
    <glyph glyph-name="Ecaron" unicode="&#x11a;" horiz-adv-x="588" 
d="M546 583h-350v-175h291v-116h-291v-175h350v-117h-467v700h467v-117zM444 915l48 -71l-170 -99l-173 93l45 77l128 -72z" />
    <glyph glyph-name="ecaron" unicode="&#x11b;" horiz-adv-x="588" 
d="M546 583h-350v-175h291v-116h-291v-175h350v-117h-467v700h467v-117zM439 912l48 -71l-170 -99l-173 93l45 77l128 -72z" />
    <glyph glyph-name="Lacute" unicode="&#x139;" horiz-adv-x="501" 
d="M196 117h259v-117h-376v700h117v-583zM77 739l-49 82l190 104l53 -84z" />
    <glyph glyph-name="lacute" unicode="&#x13a;" horiz-adv-x="501" 
d="M196 117h259v-117h-376v700h117v-583zM88 744l-49 82l190 104l53 -84z" />
    <glyph glyph-name="Lcaron" unicode="&#x13d;" horiz-adv-x="501" 
d="M196 117h259v-117h-376v700h117v-583zM370 701q55 0 67 -44t-10.5 -94.5t-56.5 -71.5v86q-26 0 -44 18.5t-18 43.5t18 43.5t44 18.5z" />
    <glyph glyph-name="lcaron" unicode="&#x13e;" horiz-adv-x="501" 
d="M196 117h259v-117h-376v700h117v-583zM370 701q55 0 67 -44t-10.5 -94.5t-56.5 -71.5v86q-26 0 -44 18.5t-18 43.5t18 43.5t44 18.5z" />
    <glyph glyph-name="Lslash" unicode="&#x141;" horiz-adv-x="501" 
d="M196 117h259v-117h-376v245l-71 -23v101l71 23v354h117v-316l110 36v-101l-110 -36v-166z" />
    <glyph glyph-name="lslash" unicode="&#x142;" horiz-adv-x="490" 
d="M196 117h259v-117h-376v245l-71 -23v101l71 23v354h117v-316l110 36v-101l-110 -36v-166z" />
    <glyph glyph-name="Nacute" unicode="&#x143;" horiz-adv-x="742" 
d="M662 700v-700h-118l-348 498v-498h-117v700h118l349 -498v498h116zM301 736l-50 84l193 107l54 -86z" />
    <glyph glyph-name="nacute" unicode="&#x144;" horiz-adv-x="742" 
d="M662 700v-700h-118l-348 498v-498h-117v700h118l349 -498v498h116zM301 737l-49 82l190 104l53 -84z" />
    <glyph glyph-name="Ncaron" unicode="&#x147;" horiz-adv-x="742" 
d="M662 700v-700h-118l-348 498v-498h-117v700h118l349 -498v498h116zM493 911l48 -71l-170 -99l-173 93l45 77l128 -72z" />
    <glyph glyph-name="ncaron" unicode="&#x148;" horiz-adv-x="742" 
d="M662 700v-700h-118l-348 498v-498h-117v700h118l349 -498v498h116zM493 902l48 -71l-170 -99l-173 93l45 77l128 -72z" />
    <glyph glyph-name="Ohungarumlaut" unicode="&#x150;" horiz-adv-x="638" 
d="M317 190q-107 0 -183.5 76.5t-76.5 183.5t76.5 183.5t183.5 76.5t183.5 -76.5t76.5 -183.5t-76.5 -183.5t-183.5 -76.5zM317 594q-60 0 -102 -42t-42 -102t42 -102t102 -42t102 42t42 102t-42 102t-102 42zM545 116v-116h-462v116h462zM220 740l-68 61l134 119l72 -63z
M415 740l-68 61l134 119l73 -63z" />
    <glyph glyph-name="ohungarumlaut" unicode="&#x151;" horiz-adv-x="797" 
d="M397 709q83 0 150 -31t108.5 -81.5t64 -115t22.5 -131.5t-22.5 -131.5t-63.5 -115t-108.5 -81.5t-150.5 -31q-84 0 -151.5 31t-109 81.5t-64 115t-22.5 131.5t23 131.5t64.5 115t109 81.5t150.5 31zM397 104q62 0 111 27t74.5 70.5t37 95.5t0 104.5t-37 96t-74.5 70.5
t-111 27q-55 0 -99 -21t-71.5 -55.5t-42 -78.5t-14.5 -90.5t14.5 -90.5t42 -78.5t71.5 -55.5t99 -21zM296 740l-70 64l138 124l75 -66zM497 740l-69 64l137 124l75 -66z" />
    <glyph glyph-name="OE" unicode="&#x152;" horiz-adv-x="946" 
d="M874 588h-286v-180h241v-111h-241v-182h300v-115h-411v1q-40 -8 -80 -8q-81 0 -146.5 31t-105.5 81t-61.5 114.5t-21.5 131.5t21.5 131.5t62 114.5t105.5 81t146 31q46 0 85 -9h392v-112zM397 96q41 0 80 13v483q-39 13 -80 13q-57 0 -102.5 -28t-68.5 -73t-34 -99.5
t-0.5 -108.5t34 -99t68.5 -73t103 -28z" />
    <glyph glyph-name="oe" unicode="&#x153;" horiz-adv-x="946" 
d="M874 588h-286v-180h241v-111h-241v-182h300v-115h-411v1q-40 -8 -80 -8q-81 0 -146.5 31t-105.5 81t-61.5 114.5t-21.5 131.5t21.5 131.5t62 114.5t105.5 81t146 31q46 0 85 -9h392v-112zM397 96q41 0 80 13v483q-39 13 -80 13q-57 0 -102.5 -28t-68.5 -73t-34 -99.5
t-0.5 -108.5t34 -99t68.5 -73t103 -28z" />
    <glyph glyph-name="Racute" unicode="&#x154;" horiz-adv-x="612" 
d="M583 0h-137l-182 292h-67v-292h-117v408h111l-111 175v117h233q5 0 13.5 -0.5t32.5 -4.5t46.5 -11t49.5 -22.5t46 -36t32.5 -54t13.5 -75.5q0 -44 -14 -79t-38 -57t-48.5 -35t-53.5 -21zM219 583l109 -174q21 2 41 8t40.5 26.5t20.5 52.5q0 39 -29 60.5t-59 23.5l-29 3
h-94zM226 746l-49 82l190 104l53 -84z" />
    <glyph glyph-name="racute" unicode="&#x155;" horiz-adv-x="599" 
d="M424 0l-134 292h-95v-292h-117v700h233q5 0 13.5 -0.5t32.5 -4.5t46.5 -11t49.5 -22.5t46 -36t32.5 -54t13.5 -75.5q0 -137 -135 -186l143 -310h-129zM195 583v-175h116q5 0 13 0.5t28 5.5t35.5 13t28 26t12.5 43q0 39 -29 60.5t-59 23.5l-29 3h-116zM221 740l-49 82
l190 104l53 -84z" />
    <glyph glyph-name="Rcaron" unicode="&#x158;" horiz-adv-x="612" 
d="M583 0h-137l-182 292h-67v-292h-117v408h111l-111 175v117h233q5 0 13.5 -0.5t32.5 -4.5t46.5 -11t49.5 -22.5t46 -36t32.5 -54t13.5 -75.5q0 -44 -14 -79t-38 -57t-48.5 -35t-53.5 -21zM219 583l109 -174q21 2 41 8t40.5 26.5t20.5 52.5q0 39 -29 60.5t-59 23.5l-29 3
h-94zM416 915l48 -71l-170 -99l-173 93l45 77l128 -72z" />
    <glyph glyph-name="rcaron" unicode="&#x159;" horiz-adv-x="599" 
d="M424 0l-134 292h-95v-292h-117v700h233q5 0 13.5 -0.5t32.5 -4.5t46.5 -11t49.5 -22.5t46 -36t32.5 -54t13.5 -75.5q0 -137 -135 -186l143 -310h-129zM195 583v-175h116q5 0 13 0.5t28 5.5t35.5 13t28 26t12.5 43q0 39 -29 60.5t-59 23.5l-29 3h-116zM420 910l48 -71
l-170 -99l-173 93l45 77l128 -72z" />
    <glyph glyph-name="Sacute" unicode="&#x15a;" horiz-adv-x="543" 
d="M273 -10q-95 2 -156.5 55.5t-62.5 148.5h117q1 -41 30.5 -64t71.5 -23t72 25t30 65q0 42 -31.5 68.5t-70.5 28.5q-54 0 -105 23q-114 53 -114 179q0 96 65 155t154 59q92 0 153.5 -56.5t62.5 -144.5h-116q-1 41 -29.5 62.5t-70.5 21.5q-44 0 -73 -25t-29 -72
q0 -41 30 -65t72 -24q54 0 104 -23q55 -25 84.5 -74.5t29.5 -112.5q0 -96 -64 -151.5t-154 -55.5zM204 753l-49 82l190 104l53 -84z" />
    <glyph glyph-name="sacute" unicode="&#x15b;" horiz-adv-x="543" 
d="M273 -10q-95 2 -156.5 55.5t-62.5 148.5h117q1 -41 30.5 -64t71.5 -23t72 24.5t30 64.5q0 42 -32 69t-70 29q-54 0 -105 23q-114 53 -114 179q0 96 65 155t154 59q92 0 153.5 -56.5t62.5 -144.5h-116q-1 41 -29.5 62.5t-70.5 21.5q-44 0 -73 -25t-29 -72q0 -41 30 -65
t72 -24q54 0 104 -23q55 -25 84.5 -75t29.5 -113q0 -96 -64 -151t-154 -55zM202 739l-49 82l190 104l53 -84z" />
    <glyph glyph-name="Scedilla" unicode="&#x15e;" horiz-adv-x="543" 
d="M284 -232q-67 0 -114 46.5t-47 111.5h91q0 -28 20.5 -48t49.5 -20t49 20t20 48t-20 47.5t-49 19.5h-11q-95 2 -156.5 55.5t-62.5 148.5h117q1 -41 30.5 -64t71.5 -23t72 23.5t30 63.5q0 42 -31.5 68.5t-70.5 28.5q-54 0 -105 23q-114 53 -114 179q0 96 65 154t154 58
q92 0 153.5 -56.5t62.5 -144.5h-116q-1 41 -29.5 62.5t-70.5 21.5q-44 0 -73 -24.5t-29 -70.5q0 -41 30 -65t72 -24q54 0 104 -23q55 -25 84.5 -74.5t29.5 -112.5q0 -120 -98 -174q52 -32 52 -97t-47 -111.5t-114 -46.5z" />
    <glyph glyph-name="scedilla" unicode="&#x15f;" horiz-adv-x="543" 
d="M284 -232q-67 0 -114 46.5t-47 111.5h91q0 -28 20.5 -48t49.5 -20t49 20t20 48t-20 47.5t-49 19.5h-11q-95 2 -156.5 55.5t-62.5 148.5h117q1 -41 30.5 -64t71.5 -23t72 23.5t30 63.5q0 42 -31.5 68.5t-70.5 28.5q-54 0 -105 23q-114 53 -114 179q0 96 65 154t154 58
q92 0 153.5 -56.5t62.5 -144.5h-116q-1 41 -29.5 62.5t-70.5 21.5q-44 0 -73 -24.5t-29 -70.5q0 -41 30 -65t72 -24q54 0 104 -23q55 -25 84.5 -74.5t29.5 -112.5q0 -120 -98 -174q52 -32 52 -97t-47 -111.5t-114 -46.5z" />
    <glyph glyph-name="Scaron" unicode="&#x160;" horiz-adv-x="543" 
d="M273 -10q-95 2 -156.5 55.5t-62.5 148.5h117q1 -41 30.5 -64t71.5 -23t72 25t30 65q0 42 -31.5 68.5t-70.5 28.5q-54 0 -105 23q-114 53 -114 179q0 96 65 155t154 59q92 0 153.5 -56.5t62.5 -144.5h-116q-1 41 -29.5 62.5t-70.5 21.5q-44 0 -73 -25t-29 -72
q0 -41 30 -65t72 -24q54 0 104 -23q55 -25 84.5 -74.5t29.5 -112.5q0 -96 -64 -151.5t-154 -55.5zM395 929l48 -71l-170 -99l-173 93l45 77l128 -72z" />
    <glyph glyph-name="scaron" unicode="&#x161;" horiz-adv-x="543" 
d="M273 -10q-95 2 -156.5 55.5t-62.5 148.5h117q1 -41 30.5 -64t71.5 -23t72 25t30 65q0 42 -31.5 68.5t-70.5 28.5q-54 0 -105 23q-114 53 -114 179q0 96 65 155t154 59q92 0 153.5 -56.5t62.5 -144.5h-116q-1 41 -29.5 62.5t-70.5 21.5q-44 0 -73 -25t-29 -72
q0 -41 30 -65t72 -24q54 0 104 -23q55 -25 84.5 -74.5t29.5 -112.5q0 -96 -64 -151.5t-154 -55.5zM395 929l48 -71l-170 -99l-173 93l45 77l128 -72z" />
    <glyph glyph-name="uni0162" unicode="&#x162;" horiz-adv-x="448" 
d="M430 700v-107h-147v-593h-116v593h-147v107h410zM223 -34q34 0 52 -16.5t19 -42t-7.5 -53t-26 -51.5t-37.5 -36v81q-25 0 -43.5 17.5t-18.5 41.5t18.5 41.5t43.5 17.5z" />
    <glyph glyph-name="uni0163" unicode="&#x163;" horiz-adv-x="448" 
d="M430 700v-107h-147v-593h-116v593h-147v107h410zM223 -35q34 0 52 -16.5t19 -42t-7.5 -53t-26 -51.5t-37.5 -36v81q-25 0 -43.5 17.5t-18.5 41.5t18.5 41.5t43.5 17.5z" />
    <glyph glyph-name="Tcaron" unicode="&#x164;" horiz-adv-x="448" 
d="M430 700v-107h-147v-593h-116v593h-147v107h410zM347 929l48 -71l-170 -99l-173 93l45 77l128 -72z" />
    <glyph glyph-name="tcaron" unicode="&#x165;" horiz-adv-x="448" 
d="M430 700v-107h-147v-593h-116v593h-147v107h410zM346 916l48 -71l-170 -99l-173 93l45 77l128 -72z" />
    <glyph glyph-name="Uring" unicode="&#x16e;" horiz-adv-x="740" 
d="M79 700h582v-419q0 -72 -35 -142q-36 -72 -102 -110.5t-154 -38.5t-154 38.5t-102 110.5q-35 70 -35 142v419zM520 188q25 47 25 94v301h-350v-302q1 -48 25 -93q43 -81 150 -81q109 0 150 81zM376 732q-56 0 -96.5 36t-40.5 86t40.5 85.5t96.5 35.5t96 -35.5t40 -85.5
t-40 -86t-96 -36zM376 905q-24 0 -40.5 -15t-16.5 -36t16.5 -35.5t40.5 -14.5q23 0 39.5 14.5t16.5 35.5t-16.5 36t-39.5 15z" />
    <glyph glyph-name="uring" unicode="&#x16f;" horiz-adv-x="683" 
d="M341 -10q-111 0 -186.5 64.5t-75.5 169.5v476h117v-476q4 -58 45 -87.5t100 -29.5t102.5 31t43.5 86v476h117v-476q0 -109 -74 -171.5t-189 -62.5zM339 728q-55 0 -94 34.5t-39 83.5t39 84t94 35t93.5 -35t38.5 -84t-38.5 -83.5t-93.5 -34.5zM339 896q-22 0 -38.5 -15
t-16.5 -35t16 -34.5t39 -14.5t39 14.5t16 34.5t-16.5 35t-38.5 15z" />
    <glyph glyph-name="Uhungarumlaut" unicode="&#x170;" horiz-adv-x="740" 
d="M79 700h582v-419q0 -72 -35 -142q-36 -72 -102 -110.5t-154 -38.5t-154 38.5t-102 110.5q-35 70 -35 142v419zM520 188q25 47 25 94v301h-350v-302q1 -48 25 -93q43 -81 150 -81q109 0 150 81zM257 747l-65 60l129 117l70 -61zM447 747l-66 60l129 117l71 -61z" />
    <glyph glyph-name="uhungarumlaut" unicode="&#x171;" horiz-adv-x="683" 
d="M341 -10q-111 0 -186.5 64.5t-75.5 169.5v476h117v-476q4 -58 45 -87.5t100 -29.5t102.5 31t43.5 86v476h117v-476q0 -109 -74 -171.5t-189 -62.5zM237 743l-69 59l135 117l74 -62zM434 743l-68 59l135 117l73 -62z" />
    <glyph glyph-name="Ydieresis" unicode="&#x178;" horiz-adv-x="645" 
d="M500 700h143l-263 -369v-331h-117v331l-263 369h143l179 -250zM283 816q0 -26 -19.5 -45.5t-46.5 -19.5q-26 0 -45.5 19.5t-19.5 45.5q0 27 19.5 46.5t45.5 19.5q27 0 46.5 -19.5t19.5 -46.5zM492 816q0 -26 -19.5 -45.5t-46.5 -19.5q-26 0 -45.5 19.5t-19.5 45.5
q0 27 19.5 46.5t45.5 19.5q27 0 46.5 -19.5t19.5 -46.5z" />
    <glyph glyph-name="Zacute" unicode="&#x179;" horiz-adv-x="475" 
d="M440 117v-117h-407l234 583h-235v117h407l-233 -583h234zM172 747l-49 82l190 104l53 -84z" />
    <glyph glyph-name="zacute" unicode="&#x17a;" horiz-adv-x="583" 
d="M567 0h-567l359 583h-329v117h537l-358 -583h358v-117zM231 745l-49 82l190 104l53 -84z" />
    <glyph glyph-name="Zdotaccent" unicode="&#x17b;" horiz-adv-x="475" 
d="M440 117v-117h-407l234 583h-235v117h407l-233 -583h234zM311 817q0 -27 -21.5 -46t-51.5 -19q-28 0 -49 19.5t-21 45.5q0 28 20.5 47.5t49.5 19.5q31 0 52 -19.5t21 -47.5z" />
    <glyph glyph-name="zdotaccent" unicode="&#x17c;" horiz-adv-x="585" 
d="M382 827q0 -28 -23.5 -48t-56.5 -20q-32 0 -55 20t-23 48q0 29 23 49.5t55 20.5q34 0 57 -20.5t23 -49.5zM567 0h-567l359 583h-329v117h537l-358 -583h358v-117z" />
    <glyph glyph-name="Zcaron" unicode="&#x17d;" horiz-adv-x="475" 
d="M440 117v-117h-407l234 583h-235v117h407l-233 -583h234zM355 911l47 -69l-166 -97l-170 91l45 75l125 -70z" />
    <glyph glyph-name="zcaron" unicode="&#x17e;" horiz-adv-x="583" 
d="M567 0h-567l359 583h-329v117h537l-358 -583h358v-117zM416 918l48 -71l-170 -99l-173 93l45 77l128 -72z" />
    <glyph glyph-name="circumflex" unicode="&#x2c6;" horiz-adv-x="392" 
d="M76 559l-48 71l170 99l173 -93l-45 -77l-128 72z" />
    <glyph glyph-name="caron" unicode="&#x2c7;" horiz-adv-x="395" 
d="M322 729l48 -71l-170 -99l-173 93l45 77l128 -72z" />
    <glyph glyph-name="breve" unicode="&#x2d8;" horiz-adv-x="342" 
d="M236 710h91q0 -78 -41 -114t-107 -36q-68 0 -113.5 36.5t-45.5 113.5h91q1 -31 20.5 -49t42 -18t42 18t20.5 49z" />
    <glyph glyph-name="dotaccent" unicode="&#x2d9;" horiz-adv-x="273" 
d="M189 640q0 -26 -20.5 -44.5t-49.5 -18.5q-28 0 -48 18.5t-20 44.5q0 27 20 46t48 19q29 0 49.5 -19t20.5 -46z" />
    <glyph glyph-name="ring" unicode="&#x2da;" horiz-adv-x="341" 
d="M164 445q-56 0 -95.5 39.5t-39.5 95.5t39.5 95.5t95.5 39.5t95.5 -39.5t39.5 -95.5t-39.5 -95.5t-95.5 -39.5zM164 637q-23 0 -39.5 -17t-16.5 -40t16.5 -39.5t39.5 -16.5t39.5 16.5t16.5 39.5t-16.5 40t-39.5 17z" />
    <glyph glyph-name="ogonek" unicode="&#x2db;" horiz-adv-x="301" 
d="M103 9h91q-32 -16 -49 -47.5t-3 -58.5q11 -20 33 -23t42 4t38 19l25 -78q-27 -17 -61.5 -26t-69.5 -7.5t-63.5 22.5t-39.5 59q-23 76 57 136z" />
    <glyph glyph-name="tilde" unicode="&#x2dc;" horiz-adv-x="392" 
d="M109 586l-81 23q9 73 64 93.5t120 -14.5q37 -18 54 -11q14 6 23 27l81 -25q-15 -53 -43 -76.5t-60.5 -21.5t-79.5 21q-4 2 -16 7t-16.5 6.5t-13.5 2.5t-13.5 -2t-10 -10.5t-8.5 -19.5z" />
    <glyph glyph-name="hungarumlaut" unicode="&#x2dd;" horiz-adv-x="416" 
d="M77 559l-68 66l134 129l73 -68zM273 559l-68 66l134 129l73 -68z" />
    <glyph glyph-name="pi" unicode="&#x3c0;" horiz-adv-x="564" 
d="M38 700h488v-116h-87v-584h-118v584h-79v-584h-117v584h-87v116z" />
    <glyph glyph-name="uni0401" unicode="&#x401;" horiz-adv-x="588" 
d="M546 583h-350v-175h291v-116h-291v-175h350v-117h-467v700h467v-117zM281 819q0 -26 -19.5 -45.5t-46.5 -19.5q-26 0 -45.5 19.5t-19.5 45.5q0 27 19.5 46.5t45.5 19.5q27 0 46.5 -19.5t19.5 -46.5zM490 819q0 -26 -19.5 -45.5t-46.5 -19.5q-26 0 -45.5 19.5t-19.5 45.5
q0 27 19.5 46.5t45.5 19.5q27 0 46.5 -19.5t19.5 -46.5z" />
    <glyph glyph-name="uni0410" unicode="&#x410;" horiz-adv-x="683" 
d="M570 584q34 -58 34 -117v-467h-117v117h-291v-117h-117v467q0 59 33 117q68 116 229 116t229 -116zM196 233h291v233q0 31 -19 62q-36 55 -127 55q-94 0 -128 -58q-7 -13 -11.5 -27.5t-5.5 -22.5v-8v-234z" />
    <glyph glyph-name="uni0411" unicode="&#x411;" horiz-adv-x="603" 
d="M312 418q122 0 182.5 -54t60.5 -152q0 -54 -21.5 -95.5t-50 -62.5t-66 -34t-62 -16.5t-43.5 -3.5h-233v700h434v-113h-318v-169h117zM312 116q30 0 55.5 6t48 29t22.5 61q0 93 -126 93h-117v-189h117z" />
    <glyph glyph-name="uni0412" unicode="&#x412;" horiz-adv-x="603" 
d="M428 349q37 -8 63.5 -26t38.5 -38t18 -39.5t6 -31.5l1 -13q0 -54 -21.5 -94t-49.5 -60t-66.5 -31.5t-61 -13.5t-44.5 -2h-233v700h233h13.5t32.5 -3.5t46 -10t49 -21t46 -35t32.5 -53.5t13.5 -74q0 -64 -33.5 -102.5t-83.5 -51.5zM195 584v-176h117q5 0 12.5 0.5t27.5 5
t35.5 13t28 26.5t12.5 42q0 42 -29 64t-58 23l-29 2h-117zM312 116q126 0 126 88q0 42 -31.5 63.5t-62.5 22.5l-32 1h-117v-175h117z" />
    <glyph glyph-name="uni0413" unicode="&#x413;" horiz-adv-x="548" 
d="M195 587v-587h-116v700h434v-113h-318z" />
    <glyph glyph-name="uni0414" unicode="&#x414;" horiz-adv-x="714" 
d="M562 0h-436v-107h-109v214h36q53 4 53 65v295q0 107 64 170t171 63h249v-593h81v-214h-109v107zM223 172q0 -34 -20 -65h267v480h-125q-57 0 -89.5 -31t-32.5 -89v-295z" />
    <glyph glyph-name="uni0415" unicode="&#x415;" horiz-adv-x="595" 
d="M535 583h-340v-87h330v-107h-330v-68h330v-107h-330v-97h340v-117h-457v700h457v-117z" />
    <glyph glyph-name="uni0416" unicode="&#x416;" horiz-adv-x="870" 
d="M377 372v328h117v-328l78 124l154 204h141l-248 -329l253 -371h-145l-188 280l-45 -58v-222h-117v222l-46 60l-187 -282h-145l253 371l-248 329h141l155 -205z" />
    <glyph glyph-name="uni0417" unicode="&#x417;" horiz-adv-x="493" 
d="M242 -10q-95 0 -154 55.5t-59 148.5h115q1 -46 30 -68.5t70 -22.5q38 0 65.5 30t27.5 72q0 47 -27.5 73t-70.5 26h-53v104h53q34 0 57.5 25t23.5 70q0 43 -24.5 68.5t-64.5 25.5t-66 -23t-26 -59h-107q0 85 55.5 140t143.5 55q92 0 149 -56t57 -152q0 -46 -20.5 -84.5
t-61.5 -57.5q44 -20 72.5 -62.5t28.5 -92.5q0 -107 -62 -161t-152 -54z" />
    <glyph glyph-name="uni0418" unicode="&#x418;" horiz-adv-x="742" 
d="M81 0v700h118v-508l349 508h120v-700h-119v517l-348 -517h-120z" />
    <glyph glyph-name="uni0419" unicode="&#x419;" horiz-adv-x="744" 
d="M81 0v700h118v-508l349 508h120v-700h-119v517l-348 -517h-120zM443 893h91q0 -78 -41 -114t-107 -36q-68 0 -113.5 36.5t-45.5 113.5h91q1 -31 20.5 -49t42 -18t42 18t20.5 49z" />
    <glyph glyph-name="uni041A" unicode="&#x41a;" horiz-adv-x="646" 
d="M629 700l-289 -356l291 -344h-153l-216 266l-66 -74v-192h-117v700h117v-353l287 353h146z" />
    <glyph glyph-name="uni041B" unicode="&#x41b;" horiz-adv-x="656" 
d="M17 -5v116q83 -10 83 63v293q0 108 60.5 170.5t166.5 62.5h249v-700h-120v587h-125q-114 0 -114 -120v-293q0 -23 -2.5 -42.5t-14 -48.5t-31.5 -48t-59 -31.5t-93 -8.5z" />
    <glyph glyph-name="uni041C" unicode="&#x41c;" horiz-adv-x="1022" 
d="M604 701h127l292 -701h-126l-229 549l-93 -223l135 -326h-126l-73 174l-72 -174h-127l136 326l-93 223l-229 -549h-126l292 701h126l93 -224z" />
    <glyph glyph-name="uni041D" unicode="&#x41d;" horiz-adv-x="681" 
d="M487 700h117v-700h-117v175h-291v-175h-117v700h117v-175h291v175zM196 292h291v116h-291v-116z" />
    <glyph glyph-name="uni041E" unicode="&#x41e;" horiz-adv-x="638" 
d="M317 190q-107 0 -183.5 76.5t-76.5 183.5t76.5 183.5t183.5 76.5t183.5 -76.5t76.5 -183.5t-76.5 -183.5t-183.5 -76.5zM317 594q-60 0 -102 -42t-42 -102t42 -102t102 -42t102 42t42 102t-42 102t-102 42zM545 116v-116h-462v116h462z" />
    <glyph glyph-name="uni041F" unicode="&#x41f;" horiz-adv-x="686" 
d="M81 700h525v-700h-117v585h-291v-585h-117v700z" />
    <glyph glyph-name="uni0420" unicode="&#x420;" horiz-adv-x="583" 
d="M312 700q5 0 13.5 -0.5t32.5 -4.5t46 -11t49 -22.5t46 -36t32.5 -54t13.5 -75.5q0 -57 -24 -99t-58.5 -61.5t-68.5 -30.5t-58 -12l-24 -1h-116v-292h-117v408h111l-111 175v117h233zM327 409q102 13 102 87q0 39 -29 60.5t-58 23.5l-30 3h-94z" />
    <glyph glyph-name="uni0421" unicode="&#x421;" horiz-adv-x="687" 
d="M403 117q97 0 165 68l82 -83q-102 -102 -247 -102t-247.5 102.5t-102.5 247.5t102.5 247.5t247.5 102.5q146 0 247 -103l-82 -82q-68 68 -165 68t-165 -68t-68 -165t68 -165t165 -68zM510 350q0 45 -31.5 76.5t-76.5 31.5q-44 0 -76 -31.5t-32 -76.5q0 -44 32 -76t76 -32
q45 0 76.5 32t31.5 76z" />
    <glyph glyph-name="uni0422" unicode="&#x422;" horiz-adv-x="448" 
d="M430 700v-107h-147v-593h-116v593h-147v107h410z" />
    <glyph glyph-name="uni0423" unicode="&#x423;" horiz-adv-x="508" 
d="M6 700h134l117 -332l124 332h124l-272 -700h-120l82 218z" />
    <glyph glyph-name="uni0424" unicode="&#x424;" horiz-adv-x="746" 
d="M429 -10h-117v91q-68 0 -122 23t-87 60.5t-51 85.5t-17.5 98t19 98t52 85.5t87 60.5t119.5 23v85h117v-85q76 0 136.5 -29.5t92 -76.5t46 -104t0.5 -114t-45 -104t-91.5 -76.5t-138.5 -29.5v-91zM429 509v-324q49 0 86.5 24t55.5 60t19 78t-15 78t-54 60t-92 24zM312 185
v324q-55 0 -93.5 -24t-55 -60t-15.5 -78t19.5 -78t56.5 -60t88 -24z" />
    <glyph glyph-name="uni0425" unicode="&#x425;" horiz-adv-x="674" 
d="M17 0l250 350l-250 350h143l179 -250l178 250h143l-250 -350l250 -350h-143l-178 250l-179 -250h-143z" />
    <glyph glyph-name="uni0426" unicode="&#x426;" horiz-adv-x="700" 
d="M565 0h-485v700h117v-585h291v585h117v-593h69v-216h-109v109z" />
    <glyph glyph-name="uni0427" unicode="&#x427;" horiz-adv-x="634" 
d="M555 0h-117v276q-67 -41 -144 -41q-105 0 -173 64.5t-68 169.5v231h117v-231q5 -59 44.5 -89t96.5 -30q74 0 127 47v303h117v-700z" />
    <glyph glyph-name="uni0428" unicode="&#x428;" horiz-adv-x="1010" 
d="M931 0h-851v700h117v-585h251v585h115v-585h251v585h117v-700z" />
    <glyph glyph-name="uni0429" unicode="&#x429;" horiz-adv-x="1026" 
d="M891 0h-811v700h117v-585h251v585h115v-585h251v585h117v-593h69v-216h-109v109z" />
    <glyph glyph-name="uni042A" unicode="&#x42a;" horiz-adv-x="624" 
d="M363 295h-117v-178h117q13 0 26 2t37 9t39 27t15 50q0 90 -117 90zM363 0h-234v595h-122v105h239v-290h117q10 0 20.5 -0.5t36 -4.5t46.5 -11t47 -22.5t43.5 -36t30 -54.5t12.5 -76q0 -58 -24.5 -100t-54 -61t-70 -30.5t-57 -12.5t-30.5 -1z" />
    <glyph glyph-name="uni042B" unicode="&#x42b;" horiz-adv-x="848" 
d="M313 0h-234v700h117v-290h117q10 0 20.5 -0.5t36 -4.5t46.5 -11t47 -22.5t43.5 -36t30 -54.5t12.5 -76q0 -58 -24.5 -100t-54 -61t-70 -30.5t-57 -12.5t-30.5 -1zM313 295h-117v-178h117q13 0 26 2t37 9t39 27t15 50q0 90 -117 90zM769 700v-700h-117v700h117z" />
    <glyph glyph-name="uni042C" unicode="&#x42c;" horiz-adv-x="580" 
d="M313 0h-234v700h117v-290h117q10 0 20.5 -0.5t36 -4.5t46.5 -11t47 -22.5t43.5 -36t30 -54.5t12.5 -76q0 -58 -24.5 -100t-54 -61t-70 -30.5t-57 -12.5t-30.5 -1zM313 295h-117v-178h117q13 0 26 2t37 9t39 27t15 50q0 90 -117 90z" />
    <glyph glyph-name="uni042D" unicode="&#x42d;" horiz-adv-x="694" 
d="M300 108q81 0 144.5 53.5t81.5 133.5h-293v114h295q-17 89 -79 136.5t-149 47.5q-97 0 -165 -68l-82 82q101 103 247 103q148 0 249 -100t101 -260q0 -153 -102 -256t-248 -103q-145 0 -247 102l82 83q68 -68 165 -68z" />
    <glyph glyph-name="uni042E" unicode="&#x42e;" horiz-adv-x="993" 
d="M620 709q81 0 146 -31t105.5 -81t62 -114.5t21.5 -132t-21.5 -132t-61.5 -114.5t-105.5 -81t-146.5 -31q-140 0 -222.5 86t-100.5 214h-99v-292h-117v700h117v-290h99q18 128 100 213.5t223 85.5zM620 105q69 0 119.5 36.5t73 90.5t22.5 118t-22.5 118t-73 90.5
t-119.5 36.5q-58 0 -104 -27t-70 -70t-35 -95.5t0 -105t34.5 -95.5t69.5 -70t105 -27z" />
    <glyph glyph-name="uni042F" unicode="&#x42f;" horiz-adv-x="618" 
d="M172 0h-137l190 304q-29 8 -53.5 21t-48.5 35t-38 57t-14 79q0 42 13 75.5t33.5 54t45.5 36t50 22.5t45.5 11t33.5 5h13h233v-117l-111 -175h111v-408h-117v292h-67zM290 409l109 174h-94q-5 0 -13 -0.5t-28 -5t-35.5 -13t-28 -26.5t-12.5 -42q0 -32 20.5 -52.5
t40.5 -26.5t41 -8z" />
    <glyph glyph-name="uni0430" unicode="&#x430;" 
d="M433 0l-31 81h-246l-30 -81h-126l279 720l280 -720h-126zM279 425l-85 -243h170z" />
    <glyph glyph-name="uni0431" unicode="&#x431;" horiz-adv-x="603" 
d="M312 418q122 0 182.5 -54t60.5 -152q0 -54 -21.5 -95.5t-50 -62.5t-66 -34t-62 -16.5t-43.5 -3.5h-233v700h434v-113h-318v-169h117zM312 116q30 0 55.5 6t48 29t22.5 61q0 93 -126 93h-117v-189h117z" />
    <glyph glyph-name="uni0432" unicode="&#x432;" horiz-adv-x="603" 
d="M428 349q37 -8 63.5 -26t38.5 -38t18 -39.5t6 -31.5l1 -13q0 -54 -21.5 -94t-49.5 -60t-66.5 -31.5t-61 -13.5t-44.5 -2h-233v700h233h13.5t32.5 -3.5t46 -10t49 -21t46 -35t32.5 -53.5t13.5 -74q0 -64 -33.5 -102.5t-83.5 -51.5zM195 584v-176h117q5 0 12.5 0.5t27.5 5
t35.5 13t28 26.5t12.5 42q0 42 -29 64t-58 23l-29 2h-117zM312 116q126 0 126 88q0 42 -31.5 63.5t-62.5 22.5l-32 1h-117v-175h117z" />
    <glyph glyph-name="uni0433" unicode="&#x433;" horiz-adv-x="548" 
d="M195 587v-587h-116v700h434v-113h-318z" />
    <glyph glyph-name="uni0434" unicode="&#x434;" horiz-adv-x="617" 
d="M509 0h-398v-107h-108v212h67l239 617l239 -617h68v-212h-107v107zM309 425l-115 -320h231z" />
    <glyph glyph-name="uni0435" unicode="&#x435;" horiz-adv-x="588" 
d="M546 583h-350v-175h291v-116h-291v-175h350v-117h-467v700h467v-117z" />
    <glyph glyph-name="uni0436" unicode="&#x436;" horiz-adv-x="875" 
d="M377 372v328h117v-328l78 124l154 204h141l-248 -329l253 -371h-145l-188 280l-45 -58v-222h-117v222l-46 60l-187 -282h-145l253 371l-248 329h141l155 -205z" />
    <glyph glyph-name="uni0437" unicode="&#x437;" horiz-adv-x="493" 
d="M242 -10q-95 0 -154 55.5t-59 148.5h115q1 -46 30 -68.5t70 -22.5q38 0 65.5 30t27.5 72q0 47 -27.5 73t-70.5 26h-53v104h53q34 0 57.5 25t23.5 70q0 43 -24.5 68.5t-64.5 25.5t-66 -23t-26 -59h-107q0 85 55.5 140t143.5 55q92 0 149 -56t57 -152q0 -46 -20.5 -84.5
t-61.5 -57.5q44 -20 72.5 -62.5t28.5 -92.5q0 -107 -62 -161t-152 -54z" />
    <glyph glyph-name="uni0438" unicode="&#x438;" horiz-adv-x="744" 
d="M81 0v700h118v-508l349 508h120v-700h-119v517l-348 -517h-120z" />
    <glyph glyph-name="uni0439" unicode="&#x439;" horiz-adv-x="747" 
d="M81 0v700h118v-508l349 508h120v-700h-119v517l-348 -517h-120zM442 891h91q0 -78 -41 -114t-107 -36q-68 0 -113.5 36.5t-45.5 113.5h91q1 -31 20.5 -49t42 -18t42 18t20.5 49z" />
    <glyph glyph-name="uni043A" unicode="&#x43a;" horiz-adv-x="646" 
d="M629 700l-289 -356l291 -344h-153l-216 266l-66 -74v-192h-117v700h117v-353l287 353h146z" />
    <glyph glyph-name="uni043B" unicode="&#x43b;" 
d="M433 0l-154 423l-153 -423h-126l279 720l280 -720h-126z" />
    <glyph glyph-name="uni043C" unicode="&#x43c;" horiz-adv-x="916" 
d="M837 701v-701h-117v430l-201 -430h-110l-214 439v-439h-117v701h119l266 -545l255 545h119z" />
    <glyph glyph-name="uni043D" unicode="&#x43d;" horiz-adv-x="686" 
d="M489 700h117v-700h-117v292h-291v-292h-117v700h117v-290h291v290z" />
    <glyph glyph-name="uni043E" unicode="&#x43e;" horiz-adv-x="797" 
d="M397 709q83 0 150 -31t108.5 -81.5t64 -115t22.5 -131.5t-22.5 -131.5t-63.5 -115t-108.5 -81.5t-150.5 -31q-84 0 -151.5 31t-109 81.5t-64 115t-22.5 131.5t23 131.5t64.5 115t109 81.5t150.5 31zM397 104q62 0 111 27t74.5 70.5t37 95.5t0 104.5t-37 96t-74.5 70.5
t-111 27q-55 0 -99 -21t-71.5 -55.5t-42 -78.5t-14.5 -90.5t14.5 -90.5t42 -78.5t71.5 -55.5t99 -21z" />
    <glyph glyph-name="uni043F" unicode="&#x43f;" horiz-adv-x="686" 
d="M81 700h525v-700h-117v584h-291v-584h-117v700z" />
    <glyph glyph-name="uni0440" unicode="&#x440;" horiz-adv-x="580" 
d="M313 700q5 0 13.5 -0.5t32.5 -4.5t46.5 -11t49.5 -22.5t46 -36t32.5 -54.5t13.5 -76t-13 -76t-33.5 -54.5t-45.5 -36t-50 -22.5t-45.5 -11t-33.5 -5h-13h-117v-292h-117v702h234zM313 407q5 0 13 0.5t28 5.5t35.5 13t28 26t12.5 43q0 39 -29 61t-59 24l-29 3h-117v-176
h117z" />
    <glyph glyph-name="uni0441" unicode="&#x441;" horiz-adv-x="694" 
d="M406 107q97 0 165 68l82 -83q-102 -102 -247 -102q-149 0 -250 99.5t-101 260.5q0 158 98.5 259t252.5 101q146 0 247 -103l-82 -82q-68 68 -165 68q-106 0 -169 -67.5t-63 -175.5q0 -110 66.5 -176.5t165.5 -66.5z" />
    <glyph glyph-name="uni0442" unicode="&#x442;" horiz-adv-x="448" 
d="M430 700v-107h-147v-593h-116v593h-147v107h410z" />
    <glyph glyph-name="uni0443" unicode="&#x443;" horiz-adv-x="511" 
d="M6 700h134l117 -332l124 332h124l-272 -700h-120l82 218z" />
    <glyph glyph-name="uni0444" unicode="&#x444;" horiz-adv-x="746" 
d="M429 -10h-117v91q-68 0 -122 23t-87 60.5t-51 85.5t-17.5 98t19 98t52 85.5t87 60.5t119.5 23v85h117v-85q76 0 136.5 -29.5t92 -76.5t46 -104t0.5 -114t-45 -104t-91.5 -76.5t-138.5 -29.5v-91zM429 509v-324q49 0 86.5 24t55.5 60t19 78t-15 78t-54 60t-92 24zM312 185
v324q-55 0 -93.5 -24t-55 -60t-15.5 -78t19.5 -78t56.5 -60t88 -24z" />
    <glyph glyph-name="uni0445" unicode="&#x445;" horiz-adv-x="674" 
d="M17 0l250 350l-250 350h143l179 -250l178 250h143l-250 -350l250 -350h-143l-178 250l-179 -250h-143z" />
    <glyph glyph-name="uni0446" unicode="&#x446;" horiz-adv-x="700" 
d="M565 0h-485v700h117v-585h291v585h117v-593h69v-216h-109v109z" />
    <glyph glyph-name="uni0447" unicode="&#x447;" horiz-adv-x="634" 
d="M555 0h-117v276q-67 -41 -144 -41q-105 0 -173 64.5t-68 169.5v231h117v-231q5 -59 44.5 -89t96.5 -30q74 0 127 47v303h117v-700z" />
    <glyph glyph-name="uni0448" unicode="&#x448;" horiz-adv-x="1011" 
d="M931 0h-851v700h117v-585h251v585h115v-585h251v585h117v-700z" />
    <glyph glyph-name="uni0449" unicode="&#x449;" horiz-adv-x="1026" 
d="M891 0h-811v700h117v-585h251v585h115v-585h251v585h117v-593h69v-216h-109v109z" />
    <glyph glyph-name="uni044A" unicode="&#x44a;" horiz-adv-x="624" 
d="M363 295h-117v-178h117q13 0 26 2t37 9t39 27t15 50q0 90 -117 90zM363 0h-234v595h-122v105h239v-290h117q10 0 20.5 -0.5t36 -4.5t46.5 -11t47 -22.5t43.5 -36t30 -54.5t12.5 -76q0 -58 -24.5 -100t-54 -61t-70 -30.5t-57 -12.5t-30.5 -1z" />
    <glyph glyph-name="uni044B" unicode="&#x44b;" horiz-adv-x="848" 
d="M313 0h-234v700h117v-290h117q10 0 20.5 -0.5t36 -4.5t46.5 -11t47 -22.5t43.5 -36t30 -54.5t12.5 -76q0 -58 -24.5 -100t-54 -61t-70 -30.5t-57 -12.5t-30.5 -1zM313 295h-117v-178h117q13 0 26 2t37 9t39 27t15 50q0 90 -117 90zM769 700v-700h-117v700h117z" />
    <glyph glyph-name="uni044C" unicode="&#x44c;" horiz-adv-x="580" 
d="M313 0h-234v700h117v-290h117q10 0 20.5 -0.5t36 -4.5t46.5 -11t47 -22.5t43.5 -36t30 -54.5t12.5 -76q0 -58 -24.5 -100t-54 -61t-70 -30.5t-57 -12.5t-30.5 -1zM313 295h-117v-178h117q13 0 26 2t37 9t39 27t15 50q0 90 -117 90z" />
    <glyph glyph-name="uni044D" unicode="&#x44d;" horiz-adv-x="694" 
d="M300 108q81 0 144.5 53.5t81.5 133.5h-293v114h295q-17 89 -79 136.5t-149 47.5q-97 0 -165 -68l-82 82q101 103 247 103q148 0 249 -100t101 -260q0 -153 -102 -256t-248 -103q-145 0 -247 102l82 83q68 -68 165 -68z" />
    <glyph glyph-name="uni044E" unicode="&#x44e;" horiz-adv-x="993" 
d="M620 709q81 0 146 -31t105.5 -81t62 -114.5t21.5 -132t-21.5 -132t-61.5 -114.5t-105.5 -81t-146.5 -31q-140 0 -222.5 86t-100.5 214h-99v-292h-117v700h117v-290h99q18 128 100 213.5t223 85.5zM620 105q69 0 119.5 36.5t73 90.5t22.5 118t-22.5 118t-73 90.5
t-119.5 36.5q-58 0 -104 -27t-70 -70t-35 -95.5t0 -105t34.5 -95.5t69.5 -70t105 -27z" />
    <glyph glyph-name="uni044F" unicode="&#x44f;" horiz-adv-x="593" 
d="M302 292l-134 -292h-129l143 310q-135 49 -135 186q0 42 13 75.5t33.5 54t45.5 36t50 22.5t45.5 11t33.5 5h13h233v-700h-117v292h-95zM397 404v182h-116q-5 0 -13 -1t-28 -6t-35.5 -13.5t-28 -27t-12.5 -42.5q0 -25 12 -43.5t29 -27t34.5 -14t29.5 -6.5l12 -1h116z" />
    <glyph glyph-name="uni0451" unicode="&#x451;" horiz-adv-x="588" 
d="M546 583h-350v-175h291v-116h-291v-175h350v-117h-467v700h467v-117zM279 818q0 -25 -19.5 -43.5t-46.5 -18.5q-26 0 -45.5 18.5t-19.5 43.5t19.5 43.5t45.5 18.5q27 0 46.5 -18.5t19.5 -43.5zM488 818q0 -25 -19.5 -43.5t-46.5 -18.5q-26 0 -45.5 18.5t-19.5 43.5
t19.5 43.5t45.5 18.5q27 0 46.5 -18.5t19.5 -43.5z" />
    <glyph glyph-name="endash" unicode="&#x2013;" horiz-adv-x="509" 
d="M462 396v-111h-423v111h423z" />
    <glyph glyph-name="emdash" unicode="&#x2014;" horiz-adv-x="579" 
d="M522 396v-111h-483v111h483z" />
    <glyph glyph-name="quotesinglbase" unicode="&#x201a;" horiz-adv-x="201" 
d="M91 116q55 0 67 -44t-10.5 -94.5t-56.5 -71.5v86q-25 0 -43.5 18t-18.5 44t18.5 44t43.5 18z" />
    <glyph glyph-name="quotedblbase" unicode="&#x201e;" horiz-adv-x="393" 
d="M91 116q55 0 67 -44t-10.5 -94.5t-56.5 -71.5v86q-25 0 -43.5 18t-18.5 44t18.5 44t43.5 18zM274 116q55 0 67 -44t-10.5 -94.5t-56.5 -71.5v86q-26 0 -44 18t-18 44t18 44t44 18z" />
    <glyph glyph-name="dagger" unicode="&#x2020;" horiz-adv-x="543" 
d="M330 525h175v-117h-175v-408h-117v408h-175v117h175v175h117v-175z" />
    <glyph glyph-name="daggerdbl" unicode="&#x2021;" horiz-adv-x="537" 
d="M328 525h175v-117h-175v-103h175v-117h-175v-188h-117v188h-175v117h175v103h-175v117h175v175h117v-175z" />
    <glyph glyph-name="bullet" unicode="&#x2022;" horiz-adv-x="312" 
d="M256 350q0 -44 -31.5 -76t-76.5 -32q-44 0 -76 32t-32 76q0 45 32 76.5t76 31.5q45 0 76.5 -31.5t31.5 -76.5z" />
    <glyph glyph-name="ellipsis" unicode="&#x2026;" horiz-adv-x="556" 
d="M88 120q27 0 45.5 -19t18.5 -45t-18.5 -44t-45.5 -18q-26 0 -44 18t-18 44t18.5 45t43.5 19zM268 120q27 0 45.5 -19t18.5 -45t-18.5 -44t-45.5 -18q-26 0 -44 18t-18 44t18.5 45t43.5 19zM448 120q27 0 45.5 -19t18.5 -45t-18.5 -44t-45.5 -18q-26 0 -44 18t-18 44
t18.5 45t43.5 19z" />
    <glyph glyph-name="perthousand" unicode="&#x2030;" horiz-adv-x="997" 
d="M165 412q-59 0 -101.5 42.5t-42.5 101.5t42.5 101.5t101.5 42.5t101.5 -42.5t42.5 -101.5t-42.5 -101.5t-101.5 -42.5zM165 618q-25 0 -43 -18t-18 -44t18 -43.5t43 -17.5t43 17.5t18 43.5t-18 44t-43 18zM486 2q-60 0 -102.5 42.5t-42.5 102.5q0 61 42.5 103.5
t102.5 42.5q61 0 103.5 -42.5t42.5 -103.5q0 -60 -42.5 -102.5t-103.5 -42.5zM486 210q-26 0 -44 -18.5t-18 -44.5q0 -25 18 -43.5t44 -18.5t44.5 18t18.5 44t-18.5 44.5t-44.5 18.5zM111 2h-111l543 698h111zM822 2q-60 0 -102.5 42.5t-42.5 102.5q0 61 42.5 103.5
t102.5 42.5q61 0 103.5 -42.5t42.5 -103.5q0 -60 -42.5 -102.5t-103.5 -42.5zM822 210q-26 0 -44 -18.5t-18 -44.5q0 -25 18 -43.5t44 -18.5t44.5 18t18.5 44t-18.5 44.5t-44.5 18.5z" />
    <glyph glyph-name="guilsinglleft" unicode="&#x2039;" horiz-adv-x="314" 
d="M202 553l75 -60l-125 -173l129 -156l-76 -63l-186 219z" />
    <glyph glyph-name="guilsinglright" unicode="&#x203a;" horiz-adv-x="314" 
d="M29 493l75 60l183 -233l-186 -219l-76 63l129 156z" />
    <glyph glyph-name="Euro" unicode="&#x20ac;" horiz-adv-x="593" 
d="M6 373v86h71q32 107 115 174t214 67q78 0 155 -41l-54 -103q-52 27 -101 27q-74 0 -126 -34t-78 -90h172v-86h-194q-3 -30 1 -57h193v-86h-166q61 -113 198 -113q62 0 112 25l39 -111q-68 -31 -151 -31q-128 0 -210 63.5t-116 166.5h-74v86h57q-3 25 -1 57h-56z" />
    <glyph glyph-name="trademark" unicode="&#x2122;" horiz-adv-x="646" 
d="M229 700v-49h-69v-248h-50v248h-69v49h188zM590 403v297h-51l-108 -231l-112 231h-50v-297h49v186l91 -186h46l85 182v-182h50z" />
    <glyph glyph-name="minus" unicode="&#x2212;" horiz-adv-x="401" 
d="M355 391v-105h-337v105h337z" />
    <glyph glyph-name="infinity" unicode="&#x221e;" horiz-adv-x="812" 
d="M557 131h-21l-130 130l-129 -130h-21q-49 0 -98 24q-103 53 -103 177t103 177q49 24 98 24h21l129 -130l130 130h21q49 0 98 -24q103 -53 103 -177t-103 -177q-49 -24 -98 -24zM576 430l-99 -98l99 -98q21 4 36 13q46 24 46 85q0 62 -46 86q-13 7 -36 12zM336 332l-99 98
q-23 -5 -36 -12q-46 -24 -46 -86q0 -61 46 -85q15 -9 36 -13z" />
    <glyph glyph-name="notequal" unicode="&#x2260;" horiz-adv-x="524" 
d="M479 413h-141l-50 -108h191v-107h-241l-51 -109h-119l50 109h-67v107h117l50 108h-167v107h217l43 95h120l-44 -95h92v-107z" />
    <glyph glyph-name="lozenge" unicode="&#x25ca;" horiz-adv-x="484" 
d="M475 349l-234 -351l-234 351l234 351zM241 512l-109 -163l109 -164l109 164z" />
    <glyph glyph-name="Y.alt" horiz-adv-x="641" 
d="M0 700h642l-263 -368v-331h-116v331zM321 451l95 132h-190z" />
    <glyph glyph-name="W.alt" horiz-adv-x="997" 
d="M0 700l1000 -1l-281 -720l-219 568l-220 -568zM173 583l107 -289l108 289h-215zM612 583l107 -289l108 289h-215z" />
    <glyph glyph-name="A.alt" horiz-adv-x="683" 
d="M570 584q34 -58 34 -117v-467h-117v117h-291v-117h-117v467q0 59 33 117q68 116 229 116t229 -116zM196 233h291v233q0 31 -19 62q-36 55 -127 55q-94 0 -128 -58q-7 -13 -11.5 -27.5t-5.5 -22.5v-8v-234z" />
    <glyph glyph-name="C.alt" horiz-adv-x="456" 
d="M403 117v-117q-145 0 -247.5 102.5t-102.5 247.5t102.5 247.5t247.5 102.5v-117q-97 0 -165 -68t-68 -165t68 -165t165 -68z" />
    <glyph glyph-name="A.alt1" horiz-adv-x="554" 
d="M559 0h-559l279 720zM387 116l-108 289l-107 -289h215z" />
    <glyph glyph-name="O.011" horiz-adv-x="261" 
d="M186 291h-117v409h117v-409zM128 175q36 0 61.5 -26t25.5 -62t-25.5 -62t-61.5 -26q-37 0 -62.5 26t-25.5 62t25.5 62t62.5 26z" />
    <glyph glyph-name="V.001" horiz-adv-x="424" 
d="M426 496l-65 -61l-150 143l-150 -143l-65 61l215 204z" />
    <glyph glyph-name="F.alt" horiz-adv-x="617" 
d="M79 700h467v-117h-467v117zM79 0v408h467v-116h-350v-292h-117z" />
    <glyph glyph-name="D.alt" horiz-adv-x="670" 
d="M79 700h117q409 0 409 -350q0 -72 -18 -129.5t-50 -94.5t-71 -63t-87.5 -39t-91.5 -18.5t-91 -5.5h-117v700zM487 350q0 61 -19 106.5t-45.5 70t-63.5 39.5t-65 18.5t-57 3.5l226 -357q24 50 24 119zM196 114q12 -2 32 -3t70.5 7t87.5 30l-190 303v-337z" />
    <glyph glyph-name="E.alt" horiz-adv-x="617" 
d="M545 583h-350v-87h350v-117h-350v-58h350v-117h-350v-87h350v-117h-467v700h467v-117z" />
    <glyph glyph-name="X.alt" horiz-adv-x="647" 
d="M643 700l-250 -350l250 -349h-643l250 349l-250 350h643zM226 583l95 -132l95 132h-190zM416 117l-95 133l-95 -133h190z" />
    <glyph glyph-name="M.alt" horiz-adv-x="740" 
d="M662 700v-469h-115v224l-125 -218h-93l-135 225v-231h-116v469h108l188 -314l180 314h108zM662 116v-116h-584v116h584z" />
    <glyph glyph-name="A.alt2" horiz-adv-x="558" 
d="M126 0h-126l279 700l280 -700h-126l-154 385z" />
    <glyph glyph-name="T.alt" horiz-adv-x="556" 
d="M509 591h-175v-135h175v-106h-175v-350h-117v350h-175v106h175v135h-175v109h467v-109z" />
    <glyph glyph-name="O.alt" horiz-adv-x="855" 
d="M777 700v-698h-698v698h698zM195 584v-466h466v466h-466z" />
    <glyph glyph-name="H.alt" horiz-adv-x="568" 
d="M371 700h116v-467h-116v175h-175v-175h-117v467h117v-175h175v175zM487 0v117h-408v-117h408z" />
    <glyph glyph-name="O.alt1" horiz-adv-x="817" 
d="M409 700q145 0 247.5 -102.5t102.5 -247.5t-102.5 -247.5t-247.5 -102.5t-247.5 102.5t-102.5 247.5t102.5 247.5t247.5 102.5zM409 116q97 0 165 68.5t68 165.5t-68 165t-165 68t-165 -68t-68 -165t68 -165.5t165 -68.5zM492 350l-83 82l-82 -82l82 -83z" />
    <glyph glyph-name="zero.alt" horiz-adv-x="558" 
d="M276 702q85 0 144.5 -60t59.5 -145v-292q0 -85 -59.5 -145t-144.5 -60t-145 60t-60 145v292q0 85 60 145t145 60zM276 585q-37 0 -62.5 -25.5t-25.5 -62.5v-182l143 250q-23 20 -55 20zM276 117q36 0 61.5 25.5t25.5 62.5v182l-142 -250q23 -20 55 -20z" />
    <glyph glyph-name="O.alt2" horiz-adv-x="812" 
d="M406 699q145 0 247.5 -102.5t102.5 -247.5t-102.5 -247t-247.5 -102t-247 102t-102 247t102 247.5t247 102.5zM173 349q0 -80 49.5 -142.5t125.5 -82.5v451q-76 -20 -125.5 -82.5t-49.5 -143.5zM465 124q76 20 125 82.5t49 142.5q0 81 -49 143.5t-125 82.5v-451z" />
    <glyph glyph-name="S.alt" horiz-adv-x="528" 
d="M260 0q-50 0 -100 22q-112 48 -118 169v38l101 92q-101 54 -101 173q0 91 65 147.5t153 56.5q52 0 104 -23q114 -52 114 -181v-25l-100 -92q100 -54 100 -173q0 -91 -65 -147.5t-153 -56.5zM280 289l-119 -109q7 -31 36.5 -47.5t62.5 -16.5q43 0 72.5 24t29.5 64
q0 68 -82 85zM158 494q0 -68 82 -85l120 109q-9 35 -44 51q-25 11 -57 11q-42 0 -71.5 -22.5t-29.5 -63.5z" />
    <glyph glyph-name="C.alt1" horiz-adv-x="687" 
d="M403 117q97 0 165 68l82 -83q-102 -102 -247 -102t-247.5 102.5t-102.5 247.5t102.5 247.5t247.5 102.5q146 0 247 -103l-82 -82q-68 68 -165 68t-165 -68t-68 -165t68 -165t165 -68zM510 350q0 45 -31.5 76.5t-76.5 31.5q-44 0 -76 -31.5t-32 -76.5q0 -44 32 -76t76 -32
q45 0 76.5 32t31.5 76z" />
    <glyph glyph-name="W.alt1" horiz-adv-x="1024" 
d="M419 0h-127l-292 701h126l229 -549l93 223l-135 326h126l73 -174l72 174h127l-136 -326l93 -223l229 549h126l-292 -701h-126l-93 224z" />
    <glyph glyph-name="O.alt3" horiz-adv-x="745" 
d="M551 253l43 -253l-227 120l-227 -120l44 253l-184 179l254 37l113 230l114 -230l254 -37zM320 373l-103 -15l75 -74l-17 -102l92 48l93 -48l-17 102l75 74l-104 15l-47 93z" />
    <glyph glyph-name="N.alt" horiz-adv-x="742" 
d="M546 700h116v-700h-118l-172 247l-176 -247h-117v700h118l349 -498v498zM196 201l105 147l-105 150v-297z" />
    <glyph glyph-name="S.alt1" horiz-adv-x="505" 
d="M296 700l-121 -291h315l-170 -408h-126l122 291h-316l170 408h126z" />
    <glyph glyph-name="E.alt1" horiz-adv-x="583" 
d="M524 700v-117h-467v117h467zM524 0h-467v117h467v-117zM524 408v-116h-467v116h467z" />
    <glyph glyph-name="H.alt1" horiz-adv-x="681" 
d="M487 700h117v-700h-117v175h-291v-175h-117v700h117v-175h291v175zM196 292h291v116h-291v-116z" />
    <glyph glyph-name="l.001" horiz-adv-x="561" 
d="M506 243h-310v-126h320v-117h-437v700h117v-350h310v-107z" />
    <glyph glyph-name="M.alt1" horiz-adv-x="1022" 
d="M604 701h127l292 -701h-126l-229 549l-93 -223l135 -326h-126l-73 174l-72 -174h-127l136 326l-93 223l-229 -549h-126l292 701h126l93 -224z" />
    <glyph glyph-name="O.alt4" horiz-adv-x="778" 
d="M379 111q-100 0 -170.5 70.5t-70.5 169.5h48q0 -79 56.5 -135.5t136.5 -56.5q79 0 135.5 56.5t56.5 135.5h48q0 -99 -70.5 -169.5t-169.5 -70.5zM379 2q-145 0 -247 102.5t-102 246.5t102 246.5t247 102.5q144 0 246 -102.5t102 -246.5t-102 -246.5t-246 -102.5zM379 652
q-125 0 -213 -88t-88 -213q0 -124 88 -212t213 -88q124 0 212 88t88 212t-88 212.5t-212 88.5zM243 459q0 56 11.5 96t28.5 40q16 0 27.5 -39.5t11.5 -96.5q0 -56 -11.5 -95.5t-27.5 -39.5t-28 39.5t-12 95.5zM437 459q0 57 11.5 96.5t27.5 39.5t27 -40t11 -96t-11 -95.5
t-27 -39.5t-27.5 39.5t-11.5 95.5z" />
    <glyph glyph-name="O.alt5" horiz-adv-x="819" 
d="M809 351l-202 -351h-405l-202 351l202 350h405zM134 351l135 -235h271l135 235l-135 234h-271z" />
    <glyph glyph-name="A.alt3" horiz-adv-x="558" 
d="M448 278l111 -278h-126l-48 121l-48 -121h-115l-48 121l-48 -121h-126l279 700zM279 171l43 107l-43 107l-42 -107z" />
    <glyph glyph-name="A.alt4" horiz-adv-x="624" 
d="M594 700v-117h-233l233 -583h-126l-154 385l-153 -385h-126l233 583h-233v117h559z" />
    <glyph glyph-name="O.alt6" horiz-adv-x="808" 
d="M402 699q145 0 247.5 -102t102.5 -247t-102.5 -247.5t-247.5 -102.5t-247 102.5t-102 247.5t102 247t247 102zM635 350q0 96 -68 164.5t-165 68.5q-63 0 -117 -32l309 -334q41 60 41 133zM169 350q0 -97 68.5 -165t164.5 -68q54 0 104 24l-304 328q-33 -55 -33 -119z" />
    <glyph glyph-name="O.alt7" horiz-adv-x="1135" 
d="M727 700q145 0 247.5 -102.5t102.5 -247.5t-102.5 -247.5t-247.5 -102.5q-85 0 -160 39q-75 -39 -160 -39q-145 0 -247.5 102.5t-102.5 247.5t102.5 247.5t247.5 102.5q85 0 160 -39q75 39 160 39zM640 350q0 101 -73 169q-73 -68 -73 -169t73 -169q73 68 73 169z
M174 350q0 -97 68 -165t165 -68q29 0 54 6q-83 99 -83 227q0 130 83 227q-25 6 -54 6q-97 0 -165 -68t-68 -165zM727 117q97 0 165 68t68 165t-68 165t-165 68q-29 0 -54 -6q83 -97 83 -227q0 -128 -83 -227q26 -6 54 -6z" />
    <glyph glyph-name="I.alt" horiz-adv-x="562" 
d="M534 593h-79v-486h79v-107h-507v107h78v486h-78v107h507v-107zM339 107v486h-117v-486h117z" />
    <glyph glyph-name="O.009" horiz-adv-x="1022" 
d="M978 584h-58v-467h58v-117h-934v117h58v467h-58v117h934v-117zM219 117h117v467h-117v-467zM453 117h117v467h-117v-467zM803 117v467h-117v-467h117z" />
    <glyph glyph-name="ampersand.alt" horiz-adv-x="607" 
d="M613 71l-83 -83l-83 83q-71 -71 -168 -71t-165.5 68.5t-68.5 165.5q0 90 62 159q-62 52 -62 134q0 72 51.5 123.5t123.5 51.5q73 0 124.5 -51.5t51.5 -123.5q0 -48 -24 -88.5t-64 -63.5l88 -87v122h117v-176q0 -24 -7 -56zM220 585q-24 0 -41 -17t-17 -41q0 -25 17 -42
t41 -17q25 0 42 17t17 42q0 24 -17 41t-42 17zM279 117q51 0 85 37l-165 165q-37 -34 -37 -85q0 -48 34 -82.5t83 -34.5z" />
    <glyph glyph-name="A.alt5" horiz-adv-x="817" 
d="M532 83l-236 5l-35 -88h-126l61 154q-71 50 -112.5 128.5t-41.5 169.5q0 151 107 258t258 107t258 -107t107 -258h-117q0 101 -70 173t-170 75l279 -700h-126zM159 452q0 -110 83 -185l172 433h-7q-103 0 -175.5 -72.5t-72.5 -175.5zM393 204h94l-72 181l-70 -173
q25 -7 48 -8z" />
    <glyph glyph-name="O.alt8" horiz-adv-x="814" 
d="M406 700q145 0 247.5 -102.5t102.5 -247.5t-102.5 -247t-247.5 -102t-247 102t-102 247t102 247.5t247 102.5zM406 117q97 0 165 68.5t68 164.5q0 97 -68 165t-165 68q-96 0 -164.5 -68t-68.5 -165q0 -96 68.5 -164.5t164.5 -68.5zM514 350q0 45 -31.5 76.5t-76.5 31.5
q-44 0 -76 -31.5t-32 -76.5q0 -44 32 -76t76 -32q45 0 76.5 32t31.5 76z" />
    <glyph glyph-name="X.alt1" horiz-adv-x="571" 
d="M559 700l-140 -350l140 -350h-126l-154 385l-153 -385h-126l140 350l-140 350h126l77 -193l76 193l77 -193l77 193h126z" />
    <glyph glyph-name="a.alt" 
d="M433 0l-31 81h-246l-30 -81h-126l279 720l280 -720h-126zM279 425l-85 -243h170z" />
    </font>
</defs>
</svg>
